<svg xmlns="http://www.w3.org/2000/svg" xmlns:xlink="http://www.w3.org/1999/xlink" viewBox="0 0 379 800"><defs><style>.cls-1{isolation:isolate;}.cls-2{fill:#231f20;}.cls-3{fill:#0091c0;}.cls-4{fill:#fff;}.cls-5{fill:#fd9619;}.cls-6{fill:#83c35c;}.cls-7{fill:#ed7f92;}.cls-8{fill:#2d81b6;}.cls-9{fill:#cbbe28;}.cls-10{fill:#99ddf3;}.cls-11{fill:#bb2c4a;}.cls-12{opacity:0.6;mix-blend-mode:multiply;fill:url(#radial-gradient);}</style><radialGradient id="radial-gradient" cx="194.2" cy="650.27" r="54.48" gradientTransform="translate(-137.43 610.01) scale(1.8 0.26)" gradientUnits="userSpaceOnUse"><stop offset="0" stop-color="gray"/><stop offset="1" stop-color="#cccbcb" stop-opacity="0"/></radialGradient></defs><title>Artboard 1</title><g class="cls-1"><g id="Objects"><path class="cls-2" d="M210.93,767.21A57.81,57.81,0,0,1,194.36,654V588.53h-2.71V571h38.54v17.49h-2.7V654a57.81,57.81,0,0,1-16.56,113.2Zm-11.5-186.45h2.7v79.29l-3,.71a50,50,0,1,0,23.55,0l-3-.71V580.76h2.7v-1.94h-23Z"/><path class="cls-3" d="M164.77,709.4a46.16,46.16,0,0,0,92.31,0Z"/><path class="cls-3" d="M216.7,671.59a6.1,6.1,0,1,0-6.1,6.1A6.1,6.1,0,0,0,216.7,671.59Z"/><path class="cls-3" d="M224.44,682.27a4.83,4.83,0,1,0-4.82,4.82A4.82,4.82,0,0,0,224.44,682.27Z"/><path class="cls-3" d="M216.31,590.72a4.83,4.83,0,1,0-4.82,4.82A4.82,4.82,0,0,0,216.31,590.72Z"/><path class="cls-3" d="M217.08,696.18a3,3,0,1,0-3,3A3,3,0,0,0,217.08,696.18Z"/><path class="cls-3" d="M213,633.42a3,3,0,1,0-3,3A3,3,0,0,0,213,633.42Z"/><path class="cls-4" d="M204.12,733a4.83,4.83,0,1,0,4.83-4.82A4.83,4.83,0,0,0,204.12,733Z"/><path class="cls-4" d="M211.49,719.1a3,3,0,1,0,3-3A3,3,0,0,0,211.49,719.1Z"/><path class="cls-5" d="M208.38,446.91a2.68,2.68,0,0,1-1.49-.38c-10.69-6.32-11-12-9.48-15.72l.11-.24c-4.2-3.42-4.89-8.05-1.82-12.51a14.56,14.56,0,0,1,1.07-1.37c-3.29-1.76-4.21-4-4.28-5.88-.36-10.62,15.85-12.6,26.58-13.91a57.2,57.2,0,0,0,6.64-1c1.09-.34,1.36-.63,1.08-5.65a46.06,46.06,0,0,1,.72-13.12c1.45-6.62,5.37-10.94,9.51-15.51,5.39-5.94,11-12.08,12-24.56,1.07-13.33-2.35-24.28-9.89-31.68S220.32,294.7,207.25,296c-27,2.68-37.69,20.35-38.69,34.67-1.5,21.43,9.64,29.73,17.77,35.8l1,.73c10.13,7.61,15.07,19.77,15.93,26.09a2.75,2.75,0,0,1-5.44.74c-.71-5.2-5.07-15.89-13.79-22.44l-1-.72c-8.11-6-21.68-16.16-20-40.58,1.14-16.46,13.26-36.74,43.63-39.75,14.72-1.46,27.58,2.41,36.23,10.89s12.72,21,11.52,36c-1.15,14.34-7.64,21.5-13.37,27.81-3.79,4.19-7.08,7.8-8.21,13a40.49,40.49,0,0,0-.61,11.64c.27,4.69.54,9.53-5,11.21a52,52,0,0,1-7.58,1.23c-7.67.94-22,2.68-21.76,8.27,0,.36.88,1.21,3.13,2l.3.1c8.42-5.83,21.89-9.76,27.65-6,4.09,2.68,3.78,5.41,3.23,6.8-2.46,6.22-20.22,6.78-28.65,5.32l-1-.19a13.42,13.42,0,0,0-2.36,2.53c-1.22,1.77-1.53,3.34.83,5.2,6.42-4.9,18.62-6.62,27.06-4.25,1.4.4,5.65,1.59,6.1,5,.19,1.38-.22,3.41-3.23,5.21-5.21,3.12-18.77,5.24-28.66,1.07-.77,3.2,4.83,6.92,7.36,8.41a2.75,2.75,0,0,1-1.31,5.11ZM207,429.23c7.89,2.25,17.58.32,20.91-1.41a12.25,12.25,0,0,0-1.22-.41C220.26,425.62,212,426.84,207,429.23ZM210.19,414c7,.28,14.27-.88,16.52-2.22a5.11,5.11,0,0,0-.67-.49C223.61,409.7,216.5,411.16,210.19,414Z"/><path class="cls-5" d="M215.7,398.28a129.42,129.42,0,0,0-10.64-33.79A77.21,77.21,0,0,0,189,341.63c-1.39-1.34-8.3-8.52-2.53-6.91,3.89,1.09,6.1,4.93,9.87,6.23,7.19,2.47,10.65-4.5,9.29-10.81-.65-3-3.92-10.07-.72-12.69,2.79-2.3,6.82,5.08,7.66,6.69,1.63,3.15,3.23,14.53,8.88,8.89,2.09-2.08,3.25-5,5.58-6.84s3.68,1.92,3.74,3.58c.13,3.16-1,6.55-1.78,9.57a1.37,1.37,0,0,0,2.67.64c.95-3.74,4.89-17.36-3.46-17-2.35.1-3.9,1.87-5.26,3.59-.93,1.17-1.76,2.42-2.66,3.61-2.08,2.72-2.57.11-3.26-2.19-1.35-4.5-5.58-14.72-12-13.48s-3.46,11.23-2.33,15.14c.81,2.79.94,6.83-1.68,8.74s-6.55-1.63-8.36-3.23a14.29,14.29,0,0,0-7.27-3.46c-6.39-.88-3.58,5.8-1.4,8.56,3.18,4,7.19,7.23,10.31,11.33a80.85,80.85,0,0,1,7.92,13.31,130.27,130.27,0,0,1,8.86,25c.62,2.44,1.61,6.92,1.87,8.47.28,1.72,3,1.65,2.74-.09Z"/><path class="cls-6" d="M225.64,252a3.22,3.22,0,0,1-1.54-.95c-9.81-10.82-8.23-17.38-5.18-21,.07-.08.13-.16.2-.23-3.53-5.31-2.69-10.75,2.32-14.7a15.54,15.54,0,0,1,1.68-1.17c-3.1-3.12-3.35-6-2.76-8.11,3.28-12.06,22.21-8.64,34.73-6.38a64.27,64.27,0,0,0,7.83,1.15c1.33,0,1.74-.23,3.17-6a54.17,54.17,0,0,1,5.39-14.51c3.93-6.94,9.84-10.43,16.1-14.13,8.12-4.8,16.53-9.76,22-23.45,5.84-14.61,5.81-28.12-.09-39.06S292.09,85,277,81.9c-31.26-6.39-49.49,9.75-55.6,25.51-9.14,23.58.49,36.79,7.52,46.44l.85,1.17c8.74,12.08,10.06,27.48,8.82,34.89a3.23,3.23,0,0,1-6.38-1.07c1-6.09-.16-19.63-7.68-30l-.84-1.15c-7-9.62-18.74-25.72-8.32-52.59,7-18.11,27.72-36.7,62.92-29.51,17.06,3.49,30.17,12.32,36.94,24.88s7,28.08.4,44.53c-6.29,15.74-16.07,21.52-24.71,26.62-5.73,3.39-10.68,6.31-13.77,11.75a47.8,47.8,0,0,0-4.73,12.88c-1.34,5.36-2.72,10.91-9.48,10.88a62.84,62.84,0,0,1-8.95-1.25c-8.95-1.62-25.61-4.63-27.34,1.71-.12.41.55,1.67,2.83,3.3l.3.21c11.49-3.62,28-3.35,33.18,2.92,3.66,4.44,2.36,7.41,1.26,8.78-4.94,6.14-25.1.58-34.08-4l-1.11-.59a16,16,0,0,0-3.54,2c-2,1.57-2.88,3.22-.87,6.14,8.93-3.28,23.24-1,31.91,4.65,1.43.93,5.8,3.76,5.13,7.73-.28,1.62-1.45,3.76-5.46,4.74-6.94,1.7-22.93-.65-32.6-8.79-2,3.33,3,9.46,5.34,12a3.23,3.23,0,0,1-3.25,5.29Zm4.56-20.38c8.09,5.28,19.66,6.48,24,5.69-.32-.25-.72-.55-1.23-.88C246.42,232.2,236.76,230.7,230.2,231.62Zm8.93-16c7.79,2.75,16.37,4,19.37,3.25a8.9,8.9,0,0,0-.59-.78C255.74,215.46,247.23,214.62,239.13,215.63Z"/><path class="cls-6" d="M250.82,199.86a152.13,152.13,0,0,0-.2-41.71,90.83,90.83,0,0,0-10.11-31.3c-1.09-2-6.36-12.47-.44-8.65,4,2.58,5.14,7.66,8.93,10.44,7.23,5.29,13.55-1.35,14.22-8.91.32-3.63-.9-12.7,3.61-14.54,3.94-1.6,5.9,8.1,6.28,10.19.73,4.12-1.43,17.47,6.89,13.1,3.07-1.62,5.39-4.45,8.66-5.75s3.46,3.44,3,5.34c-.95,3.59-3.42,7-5.35,10.13-1.09,1.78,1.7,3.42,2.79,1.65,2.37-3.87,11.54-17.81,2-20.33-2.67-.71-5,.75-7.17,2.21-1.44,1-2.81,2.1-4.24,3.12-3.29,2.34-2.93-.77-2.91-3.6.06-5.52-1.14-18.48-8.76-19.33-7.78-.85-7.8,11.44-7.89,16.22-.06,3.43-1.33,8-4.94,9.25s-6.79-4.12-8.27-6.55a16.79,16.79,0,0,0-7-6.42c-6.88-3.21-6.05,5.27-4.55,9.13,2.17,5.63,5.56,10.64,7.64,16.34a94.66,94.66,0,0,1,4.27,17.73,153.63,153.63,0,0,1,1.25,31.21c-.15,3-.6,8.34-.85,10.18-.28,2,2.84,2.91,3.12.85Z"/><path class="cls-7" d="M291.39,392.28a2.19,2.19,0,0,1-1-.68c-6.26-7.49-5-11.82-2.89-14.14l.14-.15c-2.22-3.64-1.52-7.25,1.94-9.75a10.81,10.81,0,0,1,1.15-.74c-2-2.17-2.07-4.08-1.63-5.49,2.53-8,15.07-5.17,23.37-3.33a40.09,40.09,0,0,0,5.19,1c.89,0,1.17-.1,2.28-3.9a36.21,36.21,0,0,1,4-9.54c2.81-4.53,6.85-6.7,11.13-9,5.55-3,11.3-6.08,15.32-15.07,4.29-9.6,4.63-18.62,1-26.08s-11.12-12.83-21.15-15.31c-20.7-5.1-33.3,5.19-37.81,15.54-6.74,15.5-.66,24.58,3.78,31.21l.53.81c5.51,8.3,6,18.62,5,23.53a2.16,2.16,0,1,1-4.22-.89c.84-4,.41-13.11-4.33-20.25l-.53-.79c-4.42-6.61-11.82-17.68-4.14-35.34,5.17-11.9,19.49-23.76,42.8-18,11.3,2.78,19.82,9,24,17.6s3.91,18.94-.93,29.75c-4.62,10.33-11.31,13.93-17.22,17.11-3.91,2.1-7.3,3.92-9.5,7.47a32.16,32.16,0,0,0-3.51,8.47c-1,3.55-2.11,7.21-6.62,7a41.32,41.32,0,0,1-5.94-1.08c-5.94-1.32-17-3.77-18.3.42-.09.26.32,1.12,1.79,2.27l.21.16C303,363,314,363.58,317.29,367.9c2.32,3.07,1.37,5,.6,5.9-3.46,4-16.77-.29-22.64-3.59l-.73-.42a11,11,0,0,0-2.42,1.26c-1.36,1-2,2.07-.74,4.08,6.05-1.95,15.54,0,21.18,4,.93.66,3.77,2.66,3.21,5.3-.22,1.07-1.06,2.47-3.76,3-4.69,1-15.3-1-21.54-6.74-1.41,2.17,1.76,6.4,3.25,8.17a2.16,2.16,0,0,1-2.31,3.45ZM295,378.8c5.26,3.73,13,4.85,15.88,4.44-.21-.18-.47-.38-.8-.62A24.53,24.53,0,0,0,295,378.8Zm6.4-10.44c5.12,2,10.82,3.1,12.84,2.69-.09-.14-.2-.32-.37-.54C312.46,368.69,306.8,367.9,301.37,368.36Z"/><path class="cls-7" d="M309.6,358.14a101.94,101.94,0,0,0,1-27.85,60.5,60.5,0,0,0-5.91-21.17c-.67-1.36-3.91-8.5-.06-5.79,2.61,1.83,3.23,5.26,5.69,7.21,4.68,3.73,9.08-.54,9.72-5.57.32-2.41-.26-8.5,2.81-9.6,2.67-1,3.72,5.56,3.92,7,.38,2.77-1.42,11.62,4.25,8.93,2.09-1,3.71-2.83,5.93-3.61s2.22,2.39,1.84,3.64c-.73,2.38-2.48,4.59-3.84,6.63a1.08,1.08,0,0,0,1.81,1.17c1.69-2.52,8.19-11.58,1.9-13.52-1.76-.54-3.38.37-4.84,1.29-1,.62-1.94,1.33-2.92,2-2.26,1.47-1.94-.6-1.84-2.48.18-3.69-.27-12.38-5.33-13.14s-5.52,7.42-5.71,10.61c-.13,2.29-1.1,5.32-3.54,6s-4.43-2.93-5.35-4.59a11.2,11.2,0,0,0-4.48-4.47c-4.51-2.33-4.18,3.35-3.29,6,1.3,3.81,3.43,7.25,4.66,11.11a62.46,62.46,0,0,1,2.38,11.95,102.61,102.61,0,0,1,0,20.88c-.18,2-.63,5.55-.84,6.77s1.81,2,2.06.65Z"/><path class="cls-8" d="M258.94,486.82a1.57,1.57,0,0,1-.66-.57c-3.85-5.89-2.6-8.9-.88-10.38l.12-.09a4.89,4.89,0,0,1,2.21-6.82,7.34,7.34,0,0,1,.89-.43,3.9,3.9,0,0,1-.7-4.07c2.49-5.49,11.23-2.43,17-.4a33.69,33.69,0,0,0,3.64,1.14c.64.1.85,0,2-2.61a26,26,0,0,1,3.66-6.49c2.4-3,5.48-4.22,8.74-5.51,4.23-1.66,8.61-3.39,12.25-9.49,3.89-6.51,4.9-12.94,2.92-18.6s-6.87-10.14-13.85-12.76c-14.39-5.41-24.29.89-28.4,7.92-6.14,10.54-2.56,17.56.05,22.68l.32.63a24.69,24.69,0,0,1,1.55,17.27,1.56,1.56,0,1,1-3-1,21.61,21.61,0,0,0-1.38-14.88l-.31-.61c-2.61-5.11-7-13.67,0-25.67,4.71-8.08,16-15.36,32.19-9.27,7.85,3,13.43,8.16,15.7,14.65s1.19,13.9-3.19,21.23c-4.19,7-9.29,9-13.79,10.8-3,1.17-5.56,2.19-7.44,4.54a23.24,23.24,0,0,0-3.24,5.78c-1,2.45-2.12,5-5.33,4.46a30.66,30.66,0,0,1-4.17-1.28c-4.14-1.45-11.84-4.15-13.15-1.26-.08.19.14.84,1.1,1.79l.13.12c5.75-.85,13.59.53,15.57,3.91,1.41,2.39.56,3.7-.06,4.27-2.82,2.55-12-1.63-15.92-4.49l-.49-.36a7.5,7.5,0,0,0-1.84.7c-1.06.59-1.61,1.31-.87,2.85,4.49-.88,11.13,1.31,14.83,4.64.61.55,2.48,2.23,1.86,4.07-.26.75-1,1.68-3,1.84-3.43.28-10.87-2.05-14.85-6.66-1.2,1.44.71,4.73,1.63,6.13a1.56,1.56,0,0,1-1.95,2.27Zm3.71-9.35a19.52,19.52,0,0,0,11,4.53,6.4,6.4,0,0,0-.52-.51A17.67,17.67,0,0,0,262.65,477.47Zm5.47-6.94c3.5,1.9,7.49,3.14,9,3a4.49,4.49,0,0,0-.22-.42C276,471.71,272.05,470.67,268.12,470.53Z"/><path class="cls-8" d="M274.88,463.91A73.52,73.52,0,0,0,278,444a43.69,43.69,0,0,0-2.44-15.67c-.37-1-2.08-6.42.45-4.15,1.71,1.54,1.87,4,3.46,5.65,3,3.07,6.55.39,7.44-3.16.43-1.7.54-6.12,2.83-6.65,2-.46,2.19,4.3,2.21,5.33,0,2-2,8.21,2.29,6.76,1.59-.54,2.9-1.71,4.56-2.08s1.39,1.9,1,2.76a19.49,19.49,0,0,1-3.31,4.42c-.66.77.55,1.76,1.2,1,1.42-1.66,6.85-7.6,2.51-9.53-1.22-.54-2.45,0-3.58.51-.77.36-1.5.79-2.26,1.17-1.74.86-1.34-.59-1.11-1.94.45-2.62.86-8.89-2.7-9.86s-4.58,4.85-5,7.12c-.29,1.62-1.24,3.71-3.05,4s-2.92-2.47-3.44-3.74a8,8,0,0,0-2.83-3.58c-3-2.06-3.28,2.05-2.87,4,.61,2.84,1.85,5.48,2.4,8.35a45.19,45.19,0,0,1,.69,8.77,74.55,74.55,0,0,1-1.77,14.95c-.3,1.4-.92,3.92-1.18,4.78s1.13,1.6,1.42.64Z"/><path class="cls-7" d="M183.41,462.6a1.07,1.07,0,0,1-.64,0c-5.11-1.07-6-3.3-5.9-5,0,0,0-.07,0-.11a3.62,3.62,0,0,1-2.41-4.74,5.7,5.7,0,0,1,.24-.69,2.88,2.88,0,0,1-2.5-1.77c-1.58-4.18,4.61-7.15,8.71-9.13a23.7,23.7,0,0,0,2.51-1.31c.38-.27.45-.43-.34-2.39a19.67,19.67,0,0,1-1.49-5.33c-.31-2.83.66-5.08,1.7-7.46,1.34-3.09,2.73-6.29,1.45-11.4-1.38-5.45-4.22-9.36-8.22-11.28s-8.92-1.71-13.95.57c-10.38,4.71-12.27,13.2-10.74,19,2.3,8.74,7.86,10.54,11.92,11.86l.49.16a18.29,18.29,0,0,1,9.87,8.24,1.16,1.16,0,1,1-2.07,1,16,16,0,0,0-8.52-7.07l-.48-.16c-4.05-1.31-10.82-3.51-13.44-13.47-1.77-6.71.32-16.43,12-21.73,5.66-2.57,11.31-2.77,15.9-.56s7.91,6.67,9.46,12.81c1.48,5.87-.14,9.59-1.57,12.88-.95,2.18-1.77,4.07-1.52,6.29a17.65,17.65,0,0,0,1.33,4.72c.74,1.83,1.5,3.72-.46,5.13a21.71,21.71,0,0,1-2.85,1.52c-2.93,1.41-8.38,4-7.55,6.23,0,.14.51.36,1.51.36H176c2.57-3.46,7.41-6.85,10.21-6.12,2,.52,2.24,1.65,2.21,2.28-.14,2.81-7.14,5.43-10.7,6l-.44.06a5.49,5.49,0,0,0-.6,1.33,1.37,1.37,0,0,0,1,2c1.9-2.82,6.53-5.16,10.21-5.35.61,0,2.47-.13,3.11,1.16a2.21,2.21,0,0,1-.59,2.52c-1.65,1.94-6.77,4.62-11.27,4.29.12,1.38,2.85,2.11,4.06,2.36a1.15,1.15,0,0,1,.17,2.21Zm-2.95-6.85a14.39,14.39,0,0,0,8.13-3.39h-.54A13.1,13.1,0,0,0,180.46,455.75Zm-.77-6.5c2.83-.83,5.57-2.28,6.28-3.12l-.33-.1C184.46,445.72,181.82,447.26,179.69,449.25Z"/><path class="cls-7" d="M179.76,442.24a54.47,54.47,0,0,0-8.8-12,32.49,32.49,0,0,0-9.49-6.93c-.74-.35-4.46-2.28-1.95-2.41,1.7-.1,3.1,1.14,4.78,1.14,3.2,0,3.63-3.23,2.24-5.56-.67-1.11-2.92-3.48-2-5,.8-1.29,3.4,1.1,4,1.63,1.08,1,3.25,5.35,4.74,2.35.55-1.12.63-2.42,1.3-3.48s1.73.27,2,.92a14.58,14.58,0,0,1,.58,4,.58.58,0,0,0,1.15-.1c-.13-1.62-.4-7.58-3.68-6.31a3.14,3.14,0,0,0-1.61,2.14c-.21.59-.37,1.2-.57,1.79-.46,1.37-1,.4-1.6-.43-1.14-1.61-4.2-5.11-6.59-3.75s.14,4.94,1.12,6.35c.7,1,1.3,2.59.51,3.7s-2.82.24-3.76-.15a6,6,0,0,0-3.36-.4c-2.67.52-.65,2.8.59,3.6,1.81,1.17,3.84,1.91,5.64,3.12a34.45,34.45,0,0,1,4.95,4.23,54.66,54.66,0,0,1,6.91,8.77c.58.89,1.58,2.54,1.89,3.13s1.43.24,1.08-.41Z"/><path class="cls-9" d="M63.85,236a1.53,1.53,0,0,1-.85.2c-7.09-.34-8.8-3.13-9-5.42a.76.76,0,0,1,0-.15,4.93,4.93,0,0,1-4.26-5.84,7.47,7.47,0,0,1,.17-1,3.92,3.92,0,0,1-3.73-1.83c-3-5.27,4.65-10.6,9.72-14.13A29.86,29.86,0,0,0,59,205.5c.46-.45.52-.67-1-3.14a26.37,26.37,0,0,1-3.13-6.83c-1-3.73-.21-7,.66-10.38,1.14-4.44,2.32-9-.5-15.62-3-7-7.68-11.64-13.46-13.37s-12.34-.38-18.6,3.77c-12.92,8.55-13.63,20.35-10.31,27.86,5,11.24,12.81,12.47,18.54,13.36l.7.11a24.8,24.8,0,0,1,15,8.94A1.57,1.57,0,0,1,44.38,212a21.79,21.79,0,0,0-13-7.67l-.68-.11c-5.72-.89-15.28-2.38-20.94-15.19C6,180.44,6.7,166.94,21.26,157.31c7-4.67,14.59-6.15,21.23-4.16s12,7.24,15.44,15.15c3.25,7.56,1.88,12.91.67,17.63-.8,3.13-1.5,5.84-.69,8.76a23.5,23.5,0,0,0,2.81,6.05c1.38,2.3,2.81,4.68.48,7a30.13,30.13,0,0,1-3.5,2.65c-3.63,2.52-10.38,7.21-8.8,10,.11.18.77.38,2.11.16l.18,0c2.7-5.2,8.46-10.79,12.39-10.41,2.78.27,3.35,1.73,3.45,2.58.41,3.8-8.42,8.83-13.07,10.34l-.59.18a8,8,0,0,0-.51,1.92c-.15,1.21.12,2.09,1.81,2.4,1.93-4.19,7.65-8.32,12.55-9.37.81-.17,3.28-.7,4.41.89.47.65.8,1.79-.24,3.5-1.8,3-8.09,7.66-14.21,8.19.47,1.83,4.29,2.21,6,2.29a1.58,1.58,0,0,1,.7,2.94Zm-5.44-8.56a19.67,19.67,0,0,0,10.2-6.3,7.27,7.27,0,0,0-.73.12A17.84,17.84,0,0,0,58.41,227.39ZM56,218.83c3.62-1.73,7-4.26,7.76-5.54a3.24,3.24,0,0,0-.46-.07C61.62,213.06,58.41,215.7,56,218.83Z"/><path class="cls-9" d="M54.57,209.39a73.91,73.91,0,0,0-14.41-14.24,44.07,44.07,0,0,0-14.22-7.27c-1.07-.31-6.47-2.09-3.13-2.82,2.26-.49,4.4.87,6.66.52,4.3-.67,4.18-5.12,1.81-8-1.14-1.35-4.67-4-3.76-6.23.8-1.9,4.81.75,5.66,1.34,1.67,1.16,5.52,6.48,6.87,2.13.5-1.61.32-3.39,1-5s2.38,0,2.86.81a20.3,20.3,0,0,1,1.65,5.32.79.79,0,0,0,1.52-.39c-.52-2.15-2.16-10.09-6.29-7.68-1.16.67-1.47,2-1.7,3.22-.16.84-.25,1.69-.39,2.53-.32,1.93-1.27.74-2.23-.24-1.88-1.91-6.75-6-9.65-3.62s1.25,6.61,2.87,8.28c1.15,1.2,2.29,3.21,1.48,4.87s-3.75.93-5.09.6a8.18,8.18,0,0,0-4.6.19c-3.47,1.27-.27,3.89,1.57,4.7,2.68,1.19,5.57,1.74,8.24,3a45.65,45.65,0,0,1,7.56,4.62A74.47,74.47,0,0,1,50,206.39c1,1.07,2.66,3.07,3.21,3.79s2,0,1.36-.79Z"/><path class="cls-5" d="M305.83,252a1.13,1.13,0,0,1-.47-.45c-2.67-4.48-1.65-6.67-.32-7.71l.08-.07a3.63,3.63,0,0,1,1.86-5,6.76,6.76,0,0,1,.67-.29,2.9,2.9,0,0,1-.39-3c2-4,8.4-1.45,12.62.23a21.48,21.48,0,0,0,2.66,1c.47.09.63,0,1.54-1.87A19.55,19.55,0,0,1,327,230.1c1.87-2.15,4.19-3,6.64-3.81,3.19-1.1,6.49-2.24,9.38-6.64,3.09-4.7,4-9.43,2.75-13.68s-4.77-7.73-9.85-9.89c-10.49-4.46-18-.11-21.29,5-4.88,7.61-2.45,12.92-.68,16.8l.22.47a18.29,18.29,0,0,1,.6,12.84,1.16,1.16,0,1,1-2.16-.83,16,16,0,0,0-.55-11.06l-.21-.46c-1.77-3.87-4.73-10.34.84-19C316.43,194,325,188.93,336.82,194c5.73,2.44,9.69,6.47,11.16,11.35s.45,10.33-3,15.62c-3.32,5.06-7.16,6.39-10.55,7.56-2.25.78-4.19,1.45-5.66,3.13a17.32,17.32,0,0,0-2.57,4.18c-.85,1.78-1.74,3.62-4.1,3.13a21.94,21.94,0,0,1-3-1.08c-3-1.2-8.64-3.44-9.7-1.34-.07.13.07.62.75,1.35a.94.94,0,0,0,.1.1c4.28-.45,10.05.82,11.4,3.38,1,1.82.3,2.77-.18,3.17-2.16,1.79-8.83-1.59-11.65-3.83l-.34-.29a6.3,6.3,0,0,0-1.39.46,1.38,1.38,0,0,0-.74,2.09c3.36-.51,8.21,1.32,10.84,3.9.44.43,1.76,1.73,1.25,3.07-.21.55-.78,1.22-2.25,1.28-2.55.09-8-1.86-10.79-5.41-.93,1,.38,3.53,1,4.6a1.15,1.15,0,0,1-1.51,1.62Zm3-6.81a14.43,14.43,0,0,0,8,3.7l-.38-.4A13.1,13.1,0,0,0,308.87,245.18Zm4.27-5c2.53,1.52,5.45,2.56,6.55,2.52a2.73,2.73,0,0,0-.15-.31C319,241.34,316.05,240.44,313.14,240.21Z"/><path class="cls-5" d="M318.36,235.52a54.05,54.05,0,0,0,2.9-14.61A32.44,32.44,0,0,0,320,209.23c-.24-.78-1.34-4.83.47-3.07,1.21,1.19,1.25,3.05,2.38,4.3,2.15,2.36,4.84.49,5.61-2.11.37-1.25.59-4.51,2.3-4.83,1.5-.29,1.49,3.25,1.48,4,0,1.5-1.75,6,1.48,5.08,1.19-.35,2.2-1.18,3.44-1.4s1,1.46.65,2.08a14.56,14.56,0,0,1-2.59,3.17c-.51.55.35,1.32.86.78,1.1-1.19,5.31-5.42,2.16-7a3.18,3.18,0,0,0-2.67.26c-.58.25-1.13.54-1.71.8-1.31.58-1-.48-.76-1.47.41-1.93.92-6.56-1.69-7.39s-3.55,3.44-3.92,5.11c-.26,1.2-1,2.71-2.39,2.89s-2.08-1.93-2.43-2.88a5.94,5.94,0,0,0-2-2.75c-2.18-1.61-2.49,1.42-2.25,2.87.36,2.13,1.2,4.13,1.51,6.27a32.94,32.94,0,0,1,.24,6.51,54.84,54.84,0,0,1-1.79,11c-.26,1-.8,2.88-1,3.5s.78,1.23,1,.52Z"/><path class="cls-8" d="M130.1,397.18a1.93,1.93,0,0,1-1.12.08c-8.89-1.86-10.48-5.74-10.26-8.67a1.37,1.37,0,0,1,0-.19c-3.72-1.38-5.28-4.42-4.2-8.24A10.77,10.77,0,0,1,115,379c-2.7-.44-3.87-1.79-4.35-3.07-2.74-7.27,8-12.45,15.15-15.89a40.42,40.42,0,0,0,4.36-2.27c.68-.49.79-.75-.58-4.17A33.48,33.48,0,0,1,127,344.3c-.55-4.93,1.14-8.84,2.94-13,2.34-5.38,4.76-10.94,2.52-19.83-2.39-9.48-7.34-16.27-14.3-19.62s-15.51-3-24.26,1c-18.06,8.19-21.34,23-18.67,33.12,4,15.2,13.67,18.34,20.73,20.63l.85.28a31.85,31.85,0,0,1,17.17,14.33,2,2,0,1,1-3.6,1.79,27.84,27.84,0,0,0-14.82-12.3l-.84-.28c-7-2.28-18.82-6.1-23.38-23.43-3.07-11.67.56-28.58,20.9-37.81,9.86-4.46,19.68-4.8,27.67-1s13.76,11.59,16.45,22.27c2.57,10.22-.24,16.7-2.73,22.42-1.65,3.79-3.07,7.07-2.64,10.93a29.58,29.58,0,0,0,2.32,8.21c1.28,3.19,2.61,6.48-.8,8.93a37.89,37.89,0,0,1-5,2.64c-5.1,2.45-14.58,7-13.14,10.84.09.24.89.63,2.63.63h.23c4.46-6,12.88-11.91,17.76-10.64,3.46.91,3.89,2.87,3.84,4-.25,4.89-12.42,9.45-18.61,10.42-.27.05-.52.08-.77.11a10.21,10.21,0,0,0-1,2.32c-.42,1.51-.27,2.67,1.81,3.4,3.29-4.9,11.34-9,17.75-9.3,1.06-.05,4.29-.22,5.4,2,.45.92.65,2.42-1,4.37-2.88,3.39-11.78,8.05-19.62,7.48.22,2.4,5,3.66,7.08,4.1a2,2,0,0,1,.29,3.85ZM125,385.27c6-.31,12.26-3.92,14.16-5.9-.25,0-.57,0-1,0A22.77,22.77,0,0,0,125,385.27ZM123.63,374c4.92-1.45,9.68-4,10.92-5.42a5.36,5.36,0,0,0-.57-.19C131.92,367.81,127.33,370.49,123.63,374Z"/><path class="cls-8" d="M123.75,361.75a94.24,94.24,0,0,0-15.32-20.91,56.28,56.28,0,0,0-16.51-12.07c-1.28-.6-7.75-4-3.37-4.19,3-.16,5.38,2,8.3,2,5.57,0,6.32-5.62,3.9-9.67-1.16-1.94-5.08-6.06-3.48-8.63,1.4-2.25,5.92,1.92,6.88,2.84,1.87,1.8,5.65,9.31,8.24,4.07,1-1.93,1.09-4.2,2.26-6.05s3,.47,3.44,1.61c.83,2.15.83,4.77,1,7.05a1,1,0,0,0,2-.19c-.22-2.81-.69-13.18-6.39-11-1.6.61-2.26,2.21-2.81,3.72-.36,1-.64,2.09-1,3.12-.8,2.38-1.76.69-2.78-.75-2-2.79-7.32-8.88-11.46-6.53s.25,8.61,2,11c1.22,1.75,2.25,4.52.89,6.46s-4.92.41-6.55-.28a10.49,10.49,0,0,0-5.85-.68c-4.64.89-1.13,4.85,1,6.25,3.15,2,6.68,3.32,9.81,5.44a58.11,58.11,0,0,1,8.62,7.36,95.65,95.65,0,0,1,12,15.25c1,1.55,2.74,4.42,3.29,5.43s2.49.43,1.88-.71Z"/><path class="cls-10" d="M231.15,561.47a1.35,1.35,0,0,1-.66-.29c-4.5-3.76-4.24-6.45-3.23-8l.07-.11a4.07,4.07,0,0,1,.1-6,8.18,8.18,0,0,1,.61-.55,3.26,3.26,0,0,1-1.55-3.07c.64-5,8.35-4.67,13.45-4.47a28.76,28.76,0,0,0,3.17,0c.53-.08.68-.19.93-2.56a21.78,21.78,0,0,1,1.33-6.06c1.18-3,3.34-4.69,5.62-6.51,3-2.36,6-4.8,7.44-10.54,1.51-6.13.74-11.5-2.21-15.52s-7.94-6.39-14.13-6.78c-12.78-.8-19.12,6.63-20.68,13.23-2.32,9.88,2.24,14.59,5.57,18l.4.41a20.56,20.56,0,0,1,5.45,13.38,1.3,1.3,0,0,1-2.6-.07,18,18,0,0,0-4.72-11.51l-.39-.41c-3.32-3.43-8.88-9.18-6.23-20.44,1.78-7.58,9-16.12,23.36-15.22,7,.44,12.67,3.22,16.06,7.83S262.65,507,261,513.94c-1.63,6.6-5.2,9.44-8.35,11.95-2.09,1.66-3.89,3.1-4.81,5.44a19.23,19.23,0,0,0-1.17,5.37c-.23,2.21-.47,4.49-3.16,4.86a25.22,25.22,0,0,1-3.63,0c-3.65-.15-10.43-.42-10.77,2.2,0,.16.32.63,1.31,1.15l.14.07c4.36-2.08,10.94-2.89,13.34-.69,1.7,1.56,1.35,2.82,1,3.42-1.62,2.71-9.94,1.63-13.76.31l-.48-.17a5.88,5.88,0,0,0-1.29,1,1.54,1.54,0,0,0,0,2.48c3.37-1.79,9.19-1.67,12.94.08.62.29,2.51,1.17,2.47,2.79,0,.65-.37,1.57-1.9,2.18-2.67,1.06-9.15,1-13.45-1.68-.6,1.44,1.73,3.6,2.79,4.48a1.3,1.3,0,0,1-1,2.29Zm.68-8.35a16.29,16.29,0,0,0,9.86.93c-.14-.09-.32-.18-.54-.29A14.73,14.73,0,0,0,231.83,553.12Zm2.67-6.85c3.24.65,6.72.67,7.87.21-.07-.07-.16-.17-.28-.28C241.08,545.28,237.65,545.41,234.5,546.27Z"/><path class="cls-10" d="M238.26,539.35a60.61,60.61,0,0,0-2.4-16.56,36.37,36.37,0,0,0-5.75-11.88c-.55-.73-3.22-4.6-.66-3.41,1.73.8,2.47,2.76,4.13,3.65,3.17,1.7,5.31-1.29,5.15-4.33-.07-1.46-1.06-5,.63-6,1.48-.85,2.8,2.89,3.06,3.7.52,1.6.41,7,3.47,4.82,1.13-.81,1.89-2.07,3.12-2.77s1.57,1.18,1.47,2a16.16,16.16,0,0,1-1.56,4.33.65.65,0,0,0,1.2.5c.73-1.67,3.6-7.72-.32-8.2a3.57,3.57,0,0,0-2.73,1.28c-.52.47-1,1-1.51,1.48-1.18,1.11-1.21-.15-1.35-1.27-.29-2.2-1.49-7.28-4.56-7.19s-2.47,5-2.23,6.88c.16,1.36-.09,3.26-1.45,3.95s-2.93-1.26-3.65-2.14a6.77,6.77,0,0,0-3.13-2.17c-2.91-.89-2.11,2.43-1.3,3.88,1.17,2.12,2.8,3.92,3.94,6.07a37.21,37.21,0,0,1,2.68,6.81,61.49,61.49,0,0,1,2.23,12.33c.11,1.19.23,3.35.23,4.09s1.29,1,1.29.17Z"/><path class="cls-9" d="M199.38,567.2a1.51,1.51,0,0,1-.87.07c-6.9-1.45-8.14-4.45-8-6.72,0,0,0-.1,0-.15A4.9,4.9,0,0,1,187.3,554a9.45,9.45,0,0,1,.33-.93,3.89,3.89,0,0,1-3.37-2.39c-2.13-5.64,6.22-9.65,11.75-12.32a29.79,29.79,0,0,0,3.38-1.76c.52-.37.61-.58-.45-3.23a26.16,26.16,0,0,1-2-7.19c-.43-3.82.89-6.85,2.28-10.07,1.82-4.17,3.69-8.48,1.95-15.37-1.85-7.36-5.69-12.62-11.08-15.22s-12-2.31-18.82.77c-14,6.35-16.55,17.81-14.48,25.69,3.1,11.79,10.6,14.22,16.08,16l.66.21a24.66,24.66,0,0,1,13.31,11.12,1.56,1.56,0,1,1-2.79,1.39,21.53,21.53,0,0,0-11.49-9.54l-.66-.22c-5.45-1.77-14.59-4.73-18.12-18.17-2.39-9,.43-22.17,16.2-29.32,7.65-3.46,15.26-3.73,21.46-.74s10.67,9,12.76,17.27c2,7.92-.19,12.94-2.12,17.38-1.28,2.94-2.38,5.48-2.05,8.48a23.29,23.29,0,0,0,1.8,6.36c1,2.48,2,5-.62,6.93a29.54,29.54,0,0,1-3.85,2c-4,1.91-11.3,5.45-10.18,8.41.07.19.68.5,2,.49h.18c3.46-4.67,10-9.24,13.77-8.25,2.69.69,3,2.22,3,3.06-.19,3.8-9.63,7.33-14.43,8.09l-.6.08a7.84,7.84,0,0,0-.81,1.8c-.33,1.17-.21,2.07,1.4,2.64,2.56-3.81,8.8-7,13.77-7.21.82,0,3.33-.18,4.19,1.56.35.71.5,1.88-.79,3.39-2.23,2.63-9.13,6.24-15.21,5.8.17,1.86,3.86,2.84,5.49,3.18a1.56,1.56,0,0,1,1.2,1.85A1.53,1.53,0,0,1,199.38,567.2Zm-4-9.24a19.45,19.45,0,0,0,11-4.57c-.2,0-.44,0-.74,0A17.7,17.7,0,0,0,195.39,558Zm-1-8.77c3.82-1.12,7.51-3.07,8.48-4.2a2.93,2.93,0,0,0-.45-.15C200.78,544.43,197.22,546.51,194.35,549.19Z"/><path class="cls-9" d="M194.45,539.73a73.33,73.33,0,0,0-11.88-16.22,43.79,43.79,0,0,0-12.8-9.35c-1-.47-6-3.08-2.62-3.26,2.29-.12,4.18,1.54,6.44,1.55,4.32,0,4.9-4.36,3-7.5-.9-1.5-4-4.7-2.71-6.7,1.09-1.74,4.6,1.49,5.34,2.2,1.45,1.4,4.38,7.22,6.39,3.17.74-1.5.85-3.27,1.75-4.7s2.33.37,2.67,1.25a19.34,19.34,0,0,1,.78,5.47.78.78,0,0,0,1.55-.15c-.16-2.18-.53-10.22-4.95-8.51-1.24.48-1.76,1.72-2.18,2.89-.28.8-.5,1.62-.77,2.42-.62,1.85-1.36.53-2.15-.58-1.54-2.17-5.68-6.89-8.89-5.06s.19,6.67,1.51,8.56c.94,1.35,1.75,3.5.69,5s-3.82.32-5.08-.21a8,8,0,0,0-4.54-.53c-3.59.69-.87,3.76.81,4.85,2.44,1.58,5.18,2.57,7.6,4.21a46.09,46.09,0,0,1,6.69,5.71,73.93,73.93,0,0,1,9.31,11.83c.78,1.2,2.13,3.42,2.55,4.21s1.93.34,1.46-.55Z"/><path class="cls-11" d="M152.58,294.53a2.84,2.84,0,0,1-1.61,0c-12.55-3.48-14.48-9.17-13.9-13.34,0-.09,0-.17.05-.27-5.19-2.32-7.16-6.81-5.27-12.17a15.16,15.16,0,0,1,.72-1.68c-3.82-.88-5.37-2.92-5.95-4.8-3.26-10.65,12.62-17.09,23.13-21.35a57.12,57.12,0,0,0,6.45-2.86c1-.63,1.2-1-.46-6a48.45,48.45,0,0,1-2.85-13.5c-.34-7.1,2.45-12.54,5.4-18.31,3.84-7.49,7.8-15.23,5.4-28.15-2.56-13.79-9-24-18.67-29.38s-21.93-5.67-34.81-.78C83.62,152,77.58,172.86,80.48,187.65c4.34,22.12,17.89,27.49,27.78,31.4l1.2.48c12.34,4.94,20.67,15.91,23.26,22.08a2.88,2.88,0,1,1-5.31,2.23c-2.13-5.07-9.47-14.7-20.09-19l-1.18-.46c-9.86-3.91-26.37-10.45-31.32-35.66-3.33-17,3.4-40.85,33.35-52.2,14.51-5.5,28.6-5.09,39.68,1.14s18.63,17.84,21.51,33.36c2.76,14.85-1.86,23.87-5.94,31.83-2.7,5.28-5,9.84-4.77,15.41a42.34,42.34,0,0,0,2.57,11.95c1.54,4.68,3.14,9.52-2,12.72a56.82,56.82,0,0,1-7.34,3.31c-7.52,3.05-21.5,8.72-19.78,14.32.1.36,1.21,1,3.7,1.14h.33c6.93-8.2,19.51-15.87,26.38-13.6,4.88,1.6,5.31,4.45,5.13,6-.79,7-18.63,12.39-27.57,13.22l-1.12.09a14.11,14.11,0,0,0-1.7,3.21c-.75,2.12-.64,3.8,2.27,5,5.16-6.72,17.05-11.79,26.25-11.69,1.53,0,6.16.06,7.55,3.38.56,1.35.7,3.51-1.85,6.16-4.43,4.59-17.59,10.44-28.76,8.91.1,3.46,6.79,5.69,9.76,6.51a2.88,2.88,0,0,1,.07,5.54ZM146.31,277c8.6.12,17.89-4.48,20.79-7.15-.36,0-.8-.06-1.35-.07C158.8,269.72,150.81,273.2,146.31,277Zm-.88-16.3c7.17-1.64,14.21-4.8,16.13-6.77a5.93,5.93,0,0,0-.81-.32C157.85,252.67,151,256.09,145.43,260.71Z"/><path class="cls-11" d="M146.71,243.26a135.28,135.28,0,0,0-20-31.32,80.85,80.85,0,0,0-22.53-18.77c-1.77-1-10.73-6.37-4.45-6.31,4.25,0,7.53,3.32,11.7,3.61,8,.54,9.56-7.47,6.46-13.48-1.48-2.88-6.72-9.14-4.2-12.67,2.21-3.09,8.31,3.28,9.59,4.68,2.52,2.75,7.25,13.84,11.43,6.59,1.55-2.68,1.94-5.92,3.78-8.46s4.25,1,4.78,2.61c1,3.16.75,6.91.8,10.18a1.44,1.44,0,0,0,2.88-.08c-.06-4.05.21-18.92-8.16-16.29-2.34.74-3.43,3-4.34,5.08-.62,1.44-1.12,2.93-1.71,4.37-1.36,3.34-2.58.82-3.9-1.32-2.59-4.19-9.67-13.38-15.81-10.39s-.44,12.33,1.78,16c1.58,2.61,2.81,6.67.68,9.31s-7.07.14-9.35-1a14.93,14.93,0,0,0-8.31-1.51c-6.71.85-2,6.85.92,9,4.32,3.2,9.26,5.36,13.54,8.66a84.31,84.31,0,0,1,11.66,11.32A137.23,137.23,0,0,1,139.75,236c1.3,2.29,3.52,6.56,4.21,8.06.76,1.67,3.52.85,2.75-.84Z"/><path class="cls-3" d="M206.66,457a5,5,0,1,0-5,5A5,5,0,0,0,206.66,457Z"/><path class="cls-3" d="M217.17,528.2a5.46,5.46,0,1,0-5.46,5.46A5.47,5.47,0,0,0,217.17,528.2Z"/><path class="cls-3" d="M220.1,539.19a3,3,0,1,0-3,3A3,3,0,0,0,220.1,539.19Z"/><path class="cls-3" d="M222.6,480.66a3,3,0,1,0-3,3A3,3,0,0,0,222.6,480.66Z"/><path id="shadow" class="cls-12" d="M311.24,777.21c0,8.88-44.8,16.07-100.06,16.07s-100.05-7.19-100.05-16.07,44.8-16.08,100.05-16.08S311.24,768.33,311.24,777.21Z"/><path class="cls-5" d="M177,138.78a2.24,2.24,0,0,1-1.28,0c-9.88-3.2-11.22-7.8-10.61-11.09,0-.07,0-.14,0-.21-4.05-2-5.46-5.67-3.77-9.88a12,12,0,0,1,.63-1.31c-3-.83-4.18-2.5-4.57-4-2.24-8.59,10.63-13.17,19.14-16.2A45.39,45.39,0,0,0,181.85,94c.82-.47,1-.76-.16-4.8a38.75,38.75,0,0,1-1.81-10.84c0-5.66,2.38-9.9,4.93-14.39,3.31-5.83,6.73-11.85,5.26-22.22-1.56-11.06-6.35-19.37-13.86-24S159,12.43,148.53,15.88C127,23,121.5,39.37,123.3,51.24c2.7,17.75,13.3,22.49,21,25.95l.93.42C154.93,82,161.19,91,163,96a2.29,2.29,0,1,1-4.3,1.59c-1.53-4.11-7-12-15.35-15.78l-.92-.41c-7.71-3.45-20.63-9.22-23.71-29.45-2.07-13.64,4.11-32.4,28.33-40.41,11.74-3.88,22.94-3.07,31.55,2.27s14.22,14.83,16,27.29C196.3,53,192.32,60,188.8,66.21c-2.33,4.11-4.35,7.66-4.33,12.1a34.14,34.14,0,0,0,1.64,9.6c1.07,3.78,2.18,7.68-2,10a43.67,43.67,0,0,1-6,2.39c-6.09,2.17-17.41,6.2-16.24,10.72.08.3.94.83,2.91,1l.27,0c5.8-6.29,16.07-12,21.46-9.93,3.83,1.44,4.07,3.73,3.88,5-.87,5.53-15.26,9.23-22.4,9.58l-.89,0a10.93,10.93,0,0,0-1.47,2.5c-.66,1.66-.63,3,1.64,4.08,4.33-5.17,14-8.8,21.29-8.41,1.22.07,4.9.27,5.89,3,.41,1.1.44,2.83-1.68,4.85-3.68,3.5-14.36,7.7-23.19,6.1,0,2.76,5.21,4.77,7.54,5.52a2.3,2.3,0,0,1-.13,4.41Zm-4.4-14.16c6.85.39,14.4-3,16.8-5-.29,0-.64-.08-1.07-.1C182.84,119.24,176.36,121.74,172.64,124.62Zm-.14-13c5.76-1,11.48-3.33,13.07-4.83a4,4,0,0,0-.63-.28C182.66,105.64,177.13,108.13,172.5,111.61Z"/><path class="cls-5" d="M174.12,97.77a107.81,107.81,0,0,0-14.86-25.62A64.44,64.44,0,0,0,142,56.44c-1.37-.84-8.32-5.43-3.32-5.17,3.38.18,5.88,2.9,9.19,3.27,6.32.71,7.86-5.61,5.6-10.51-1.08-2.34-5-7.5-2.91-10.23,1.86-2.38,6.5,2.9,7.47,4.06,1.91,2.28,5.3,11.26,8.88,5.63,1.32-2.08,1.74-4.64,3.29-6.6s3.36.9,3.72,2.24c.68,2.55.36,5.53.29,8.13a1.15,1.15,0,0,0,2.29,0c.1-3.23.82-15.06-5.93-13.25-1.89.51-2.83,2.24-3.63,3.9-.55,1.12-1,2.29-1.51,3.42-1.2,2.6-2.08.56-3.06-1.19-1.92-3.42-7.24-11-12.23-8.81s-.77,9.8.87,12.78c1.17,2.13,2,5.4.22,7.44s-5.64-.13-7.41-1.11A11.84,11.84,0,0,0,137.23,49c-5.37.45-1.86,5.38.42,7.23,3.33,2.7,7.19,4.59,10.48,7.37A66.52,66.52,0,0,1,157,73a109.23,109.23,0,0,1,11.8,18.79c.95,1.87,2.57,5.35,3.07,6.57s2.78.79,2.22-.58Z"/></g></g></svg>