<svg id="Layer_1" data-name="Layer 1" xmlns="http://www.w3.org/2000/svg" viewBox="0 0 31 52"><defs><style>.cls-1{fill:#fd9619;}</style></defs><title>Artboard 1</title><path class="cls-1" d="M14.58,50.86a.89.89,0,0,1-.47-.14c-3.39-2.1-3.47-3.94-2.94-5.12l0-.07a2.77,2.77,0,0,1-.49-4,3.47,3.47,0,0,1,.35-.43,2.21,2.21,0,0,1-1.33-1.92c0-3.41,5.18-3.93,8.63-4.28a17.75,17.75,0,0,0,2.15-.28c.35-.1.44-.19.38-1.81a14.78,14.78,0,0,1,.33-4.21,10.75,10.75,0,0,1,3.16-4.91c1.78-1.87,3.61-3.8,4-7.8.44-4.27-.58-7.81-2.95-10.24S19.51,2.06,15.31,2.38C6.63,3.05,3.05,8.65,2.63,13.24,2,20.11,5.51,22.86,8.08,24.86l.31.25a13.94,13.94,0,0,1,4.93,8.49.89.89,0,0,1-1.76.2A12.25,12.25,0,0,0,7.3,26.49L7,26.25C4.43,24.25.15,20.91.87,13.08,1.36,7.8,5.4,1.37,15.17.62,19.91.26,24,1.6,26.73,4.39S30.66,11.23,30.17,16c-.48,4.6-2.61,6.85-4.49,8.84A9.27,9.27,0,0,0,22.94,29a13.45,13.45,0,0,0-.28,3.73c.06,1.51.11,3.07-1.67,3.57a17.75,17.75,0,0,1-2.44.34c-2.47.24-7.07.7-7,2.5,0,.11.27.39,1,.65l.1,0c2.74-1.81,7.1-3,8.92-1.72,1.3.9,1.18,1.77,1,2.21-.83,2-6.54,2-9.24,1.5l-.34-.07a4.77,4.77,0,0,0-.77.8,1.05,1.05,0,0,0,.23,1.68c2.09-1.53,6-2,8.72-1.17.45.14,1.8.55,1.92,1.64.05.45-.09,1.1-1.07,1.65a12.11,12.11,0,0,1-9.22.14c-.27,1,1.51,2.26,2.31,2.75a.89.89,0,0,1-.46,1.64Zm-.33-5.69A10.91,10.91,0,0,0,21,44.86l-.39-.13A10,10,0,0,0,14.25,45.17ZM15.4,40.3a13,13,0,0,0,5.32-.59,1.41,1.41,0,0,0-.21-.16C19.74,39,17.45,39.43,15.4,40.3Z"/><path class="cls-1" d="M17.28,35.29a41.66,41.66,0,0,0-3.17-10.93,24.7,24.7,0,0,0-5-7.45c-.43-.45-2.6-2.8-.76-2.24,1.24.38,1.92,1.63,3.13,2.07,2.29.85,3.45-1.37,3.06-3.4-.19-1-1.19-3.27-.14-4.09s2.15,1.68,2.41,2.21c.5,1,.93,4.69,2.79,2.92a25.27,25.27,0,0,1,1.84-2.16c.76-.59,1.16.65,1.17,1.18A11.21,11.21,0,0,1,22,16.46a.44.44,0,0,0,.85.22c.34-1.19,1.7-5.54-1-5.48a2.39,2.39,0,0,0-1.72,1.11c-.31.37-.58.77-.88,1.14-.69.86-.83,0-1-.73-.4-1.45-1.69-4.76-3.75-4.41s-1.19,3.58-.85,4.84c.24.91.25,2.2-.61,2.8s-2.09-.57-2.66-1.1A4.5,4.5,0,0,0,8,13.69c-2-.33-1.19,1.83-.51,2.73,1,1.32,2.26,2.38,3.23,3.72a26.35,26.35,0,0,1,2.45,4.33,41.75,41.75,0,0,1,2.66,8.1c.18.78.47,2.23.54,2.73s1,.55.88,0Z"/></svg>