<svg id="Madhbhavikar" data-name="Madhbhavikar" xmlns="http://www.w3.org/2000/svg" viewBox="0 0 2149.83 2001.78">
    <defs>
        <style>
            .name{
            font-size:190.68px;
            fill:#231f20;
            font-family:CopperplateGothic-Bold, Copperplate Gothic Bold;
            }
        </style>
    </defs>
    <title>MadhbhavikaR</title>
    <path
        d="M190.08,639.42a48.93,48.93,0,0,1-15.24-12.36c-5-5.82-7.69-14.53-8.51-18.31-3.39-1.93-3.78-15-3.48-23.13-3.23,12.21-1.62,22,.38,29.6,2.49,9.41,9.12,17.61,16,22.89a45.75,45.75,0,0,1-17.09-24c-.42-1.29-.81-2.64-1.17-4.06.54,2.15,1.17,4.24,2,6.67a46,46,0,0,0,9.65,15.78c8.3,8.65,16.91,12.16,24.17,14.68,14.66,4.58,26.76,5,38.51,4.88,8.37.11,15.77,8.57,27.09,2.26-14.37-1.16-29.18-2.51-45.5-5.87C208.72,646.68,200,644.56,190.08,639.42Z" />
    <path
        d="M335,140.38c7.2,9.12,15.57,13.79,21.91,18.25,10.39,6.37,20.56,11,27.83,14.7,4.4,2.67,6.24,14.48,18,15.5-5-4.57-10.12-9.09-15.25-13.66-3.36-3.3-8.68-7-14.6-10.93s-12.48-8.17-19.42-13.53c-6.72-5.45-15-11.77-21-24.78-1.84-.4-4.3-7.43-4.75-10.26-.83-3.36-1.24-7.46-2.37-10.08a80.38,80.38,0,0,0,.42,12.36,47,47,0,0,0,5.9,16.6,58.51,58.51,0,0,0,13.12,15.18A63.44,63.44,0,0,1,335,140.38Z" />
    <path d="M220,627.21c12.3,4.39,26.16,5.52,39.42,5C245.91,632,232.37,631,220,627.21Z" />
    <path
        d="M1699.82,76.5a189.59,189.59,0,0,0-28.11,17L1690.25,80c-15.38,11.23-33.2,23-49.53,36.5-6.16,4.64-16.61,1.73-21.93,13,24-13.81,49.17-27.33,72.17-43.19C1691,83.1,1698.06,80.1,1699.82,76.5Z" />
    <path
        d="M1683.83,627.55c12.26,4.53,26.14,5.75,39.43,5.24C1709.73,632.57,1696.16,631.49,1683.83,627.55Z" />
    <path
        d="M1653.74,639.34a48.15,48.15,0,0,1-15-12.32c-4.92-5.8-7.63-14.47-8.45-18.27-3.39-1.93-3.79-15-3.49-23.13-3.23,12.22-1.61,22,.39,29.6,2.36,8.87,8.37,16.66,14.76,22a47,47,0,0,1-10.19-11c-2.56-3.42-5-9.66-5.67-12.09-.42-1.28-.81-2.63-1.16-4,.53,2.14,1.17,4.22,2,6.63a45.11,45.11,0,0,0,9.56,15.66c8.17,8.66,16.66,12.27,23.85,14.84,14.6,4.78,26.78,5.34,38.59,5.3,8.41.18,15.87,8.68,27.3,2.37-14.51-1.16-29.41-2.58-45.76-6.13C1672.22,646.77,1663.68,644.73,1653.74,639.34Z" />
    <path d="M335,140.38a61.56,61.56,0,0,1-10-19A53.79,53.79,0,0,0,335,140.38Z" />
    <path d="M550.19,928.48a36.6,36.6,0,0,1-.66-7.73A21.46,21.46,0,0,0,550.19,928.48Z" />
    <path
        d="M1504.79,258c.89,2.62,1.73,4.51,2.68,6.76,4.12,8.13,10.42,18.22,21.58,26.54s25.74,11.9,36.27,11.61c21.3-.92,32.16-7.74,42.4-13.1,12-5.14,25.16-13.51,29.48-18,19.64-24.82,40.44-49.34,66.48-71.89,12.09-9.35,24.38-19.35,36.85-29.29,12.06-10.09,25.56-18.55,38.92-31.9,6.44-6.56,13-14.79,16.55-26.06,3.66-11.59,2.1-24.22-3.69-35.26-6.33-12.55-21.44-19.72-31.58-21.55-10.88-2.45-19.1-2.58-27.66-3.51,7.29,1.85,16.3,1.43,28,4.19,11.39,1.83,25.56,12,27.19,21.51a27.26,27.26,0,0,0-5.35-3.2c1.32,4.58,5.17,14.69,3.83,19.86-1.33-1.92-1.29-4.34-1.56-7a31.21,31.21,0,0,1,.1,5.19c-1-8.58-12.62-21.76-24.22-22.35-10.76-1.55-17.7.77-15.46,4.48a7.92,7.92,0,0,0,4,3.2,90.23,90.23,0,0,0-9.89,1.84c-4.29,1-4.16,1.54-6.77,3.38-31.29,22.09-57.75,39.31-101.56,71.09-8.16,5.93-25.12,16.59-41.81,29.37l.94-.89-1.39,1c-.92.77-1.81,1.55-2.69,2.34-1.34,1.06-2.69,2.13-4,3.21,1.54-3.78,4-7.79,5.74-11.53-12.85,8.21-25.15,17.7-35.52,30-5.05,6.26-9.88,13.2-12.35,22.05-2.9,8.94-.51,19.73,4.44,26.88-3.16-5.9-4.87-12.75-3.59-19.63a31.55,31.55,0,0,1,8.4-15.83c-5.7,8-9.12,20.34-4.21,30.62,3,11.06,17.21,18.56,28.46,16.15,23.19-5.89,39.39-20.67,56.8-32.45a22.1,22.1,0,0,1-3.57,5.33c5.61-4.77,11.48-9.36,17.37-13.85l4.37-5.49c-.39.84-1.57,2.54-2.28,3.9,18.34-13.8,37.32-26.49,55.45-38.95a4.87,4.87,0,0,0-1.83,3.33l2.78-2.25c2.38-2.17,4.8-4.31,7.26-6.21a57.34,57.34,0,0,1-7.26,6.21l-2.89,2.68a2.86,2.86,0,0,1-2.4,2.22c-4.44,4.1-8.66,7.75-12.51,9.46-14.7,6.53-24.21,18.72-36.76,24.78-2.85,1.53-2.69.38-1.84-1.27l-2.09,1.59a70,70,0,0,1-11.21,11.35c-4.76,3.34-9.67,6.83-14.7,10.11l-2.82,2.09,1.35-1.15c-13,8.14-26.62,16.21-43.22,18.57-9.32,2.7-23.5-1.09-29.06-11.31,4.16,9.45,17.14,15.28,26.81,13.79,9.87-.76,18.24-4,26.25-7.13-9.21,6.41-20.85,15.5-40.5,11.21,12.44,3.74,22.59.6,31-2.29,6.77-1.74,12.85-4.14,17.65-4.8-7.54,3.67-14,6.79-20.93,10.08,15.84-4.59,28.15-11.83,40.31-19.09-13,7.93-25.88,20.15-46.68,22,2.26-1,4.35-1.91,6.37-2.88-7.18,1.88-15.63,3.57-25.86,1.24-10.48-2.11-19.81-10.8-23.58-18.74-3.7-6.92-6.41-16.78-4.88-26.3,1.47-8.92,5-15.85,8.76-21.79-6.07,4.79-11.91,15-11.12,29.38a49.92,49.92,0,0,0,5.46,18.35A53.34,53.34,0,0,0,1546,276.16c-11.33-7.25-16-17.24-18.73-26.6-3.27-12.3,0-23.82,3.85-31.94,8.24-16.26,19.06-26.21,29.5-35.83,20.78-18.58,44-33.61,59.81-50.52-13,8.9-28.79,18.17-45.05,27.53,3.1-1.76,6.08-4.55,9.09-7.14-10.28,7.5-20.2,14.59-30.55,24.32v-.26c-11.59,11.27-24.71,21.07-35.29,43.82a59.49,59.49,0,0,0-4.54,21.6,53.52,53.52,0,0,0,1.41,12.84,71.83,71.83,0,0,0,2.88,9.59c3.34,12.37,20,30.88,38.76,33.92-15.13.8-28.73-10-33.54-18.89-5.42-9.19-6-16.72-8.25-23.06-4.41-12.91-2.88-26.58.29-36a83.21,83.21,0,0,1,11.73-22.72A169.39,169.39,0,0,1,1550,171.71a182.92,182.92,0,0,0-16.67,17.73C1543,177.85,1551.89,171,1563,164c-1.79,3.91-9.27,8.28-9.08,11.71,13.4-12,26.43-22.77,38.23-34.38,14.62-12.91,1.13-13.8-5.35-9.13-16.4,12-33.3,23-50.06,38.33-8.34,7.88-16.92,16.67-24.89,30.54a79.59,79.59,0,0,0-9.49,27.64,67.79,67.79,0,0,0,.09,19.18A74.38,74.38,0,0,0,1504.79,258Z" />
    <path
        d="M1615.81,153.21a44.88,44.88,0,0,0,3.53-3.78c-13.55,5.41-25.25,16.32-37.43,24.82C1593.33,166.65,1604.78,159.86,1615.81,153.21Z" />
    <path d="M1633.71,146.07a270.22,270.22,0,0,1,33.74-19.73A160.91,160.91,0,0,0,1633.71,146.07Z" />
    <path
        d="M1734.68,58.94a26.81,26.81,0,0,0-9.09,3.12c-5.89,3.65-4.3,3.21-5.52,4.07a55.77,55.77,0,0,1,5.07-3.53A38.08,38.08,0,0,1,1734.68,58.94Z" />
    <path
        d="M549.73,917.26c-.13,1.16-.18,2.32-.2,3.49.13-2.35.46-4.69.72-6.69A26.44,26.44,0,0,0,549.73,917.26Z" />
    <path
        d="M387.92,55.78c11.07,4.09,18.15,10.34,21.74,16l-4.57-.23c1.08,3.67,7.52,9.44,9.85,13.37-2.08-.26-3.38-2.11-4.7-4,1.32,1.91,1.32,1.91,2.6,3.8-6.62-4.23-16-11.86-26.45-14.93-10.57-3.33-19.82.34-16.6,3.8A12,12,0,0,0,374,76.47a26.51,26.51,0,0,0-9.45,3.12c-3.8,2.1-18.72,7.39-13.54,33.85,3.59,18.39,34.88,29.34,50.78,40.63,23.57,16.72,42.85,31.34,62.24,46l-1.39-.88,1.32,1.08c1,.72,2.05,1.4,3.07,2.07l4,3c-4.05-.59-8.55-2-12.58-2.54a550.61,550.61,0,0,0,73,54.48,139.53,139.53,0,0,1-24.86-22.95c15.66,12,29.54,26.77,51.21,33.66,5.92,1,13.21.77,19-3.2s9-9.73,10.88-15.18c4.46-11.1,2.17-24.8-4.31-34.21a16.68,16.68,0,0,1,5.21,4.93c-4.14-7.67-9.76-13.62-15.52-18.92-2.13-1.24-4.32-2.31-6.51-3.34.92.21,2.91,1,4.44,1.47-18.32-15.67-38.34-27.36-56.62-39.48a4.83,4.83,0,0,0,3.76.41l-3.12-1.71a86.62,86.62,0,0,1-8.36-4.38,65.32,65.32,0,0,1,8.36,4.38l3.55,1.65a2.84,2.84,0,0,1,3,1.36c5.49,2.51,10.55,5,13.66,7.95,11.74,11.14,27.1,16,36.62,27.73,2.26,2.66,1,2.68-.82,2.09l2.07,1.87A39.68,39.68,0,0,1,586.37,213a42.42,42.42,0,0,1,7,20.24,29.92,29.92,0,0,1,.24,4.34l-.17-2.19a40.24,40.24,0,0,1-9.32,25.42c-6.35,8.14-18.57,9.79-26.33,7.26-10-1.82-18.37-6.19-26.35-10.71,6.85,4.81,14.24,9.38,23.39,12.25,8.41,3.31,23,2.55,31.2-6.85-3.73,6.75-13.36,12.46-21.92,12.46-8.56.43-15.71-1.85-22-4.54,7.9,3.61,17.56,8,31.09,5.08,10.81-1.76,18.83-10.24,23-14.7-5.46,10.41-18.7,18.76-29.34,19.64,12,.57,26-9.3,30.57-18.54,5.15-8.68,8.35-18,8-29.77a55.18,55.18,0,0,0-.71-6.4,45.08,45.08,0,0,1,.71,6.4,56.93,56.93,0,0,1-1.82,18,54.84,54.84,0,0,1-7,16.12,36.47,36.47,0,0,1-17.79,14.19,33.67,33.67,0,0,1-20.64.76,83.69,83.69,0,0,0,8.69-.75c-20.58-.77-30.8-9.45-41.62-15.9-10.37-7-19.54-14.4-28.45-20.88,6.35,11.23,24.81,18.06,37.09,29.5-26.37-13.32-44.11-29.75-65.88-45.23-20.9-15.71-41.85-30.81-64.07-41.39,13.59,10.45,27,21.2,39.65,33.69-2.37-2.36-5.73-4.29-8.92-6.24,9.66,7.16,18.55,14.29,28.86,21.6l-.24.07c11.2,8.38,22.82,17.81,32.83,26.7,11.06,9.43,22,20.11,40,29.64-17.57-1.22-19.68-13.25-27-17.8-10.41-6.27-18.56-12.27-26.91-18.09-8.6-6.08-16.84-12.18-24.75-17.79L476.6,252a183.94,183.94,0,0,1-25.53-21.52c4,.57,9.18,6.4,12.25,5.42A264.85,264.85,0,0,0,423,210.46c-16.48-9.22-13.06,3.7-6.89,8,31.64,22.47,55.49,46.73,90.22,66.61,9.54,4.23,19.35,9.12,33.36,13.25a79.43,79.43,0,0,0,27.24,3.22c11.28-.34,26.57-6.36,35.52-15.7a65.89,65.89,0,0,0,18.78-30.73c3.33-10.94,2.89-22.75,1.21-28.79-11.57-33.35-33.29-41.73-48.69-50.76-16.55-8.35-32.52-14.52-47.82-22.16-26.48-13.41-49.59-33.09-76.52-53.53-11.76-9-23.28-20.38-36.88-30.73C405.57,64,398,58.75,387.63,55.07c-10.13-3.81-24.35-4.56-36.87-.4C361.41,52.06,377,51.31,387.92,55.78Z" />
    <path
        d="M426.62,184.34a44,44,0,0,0-4.77-2.11c9.75,11.07,23.56,18.27,34.71,27.59C446.49,201,436.57,192.54,426.62,184.34Z" />
    <path d="M532.58,913.06l-.49.28A1.89,1.89,0,0,0,532.58,913.06Z" />
    <path
        d="M413.91,169.5c-10.71-8.42-20.19-16.46-30.44-24C393.45,153.56,402.91,161.77,413.91,169.5Z" />
    <path d="M343.39,67.77c3.53-3.35,10-6.78,10.68-7.13C353.5,60.49,347.1,64,343.39,67.77Z" />
    <path d="M443.89,995.45c11-7.56,21.92-14.86,33.11-20.83A186.36,186.36,0,0,0,443.89,995.45Z" />
    <path
        d="M548,909.39c-1.87.12-2.58-.66-9.66,1.06-5.88,2.15-5.49,2.32-5.77,2.61l.45-.26a22.81,22.81,0,0,1,4.51-1.92,28,28,0,0,1,7.31-1.32l2.7.06c2.35.13,2.27.17,3,.21l.14,0v-.22A22.67,22.67,0,0,0,548,909.39Z" />
    <path
        d="M509.64,923.17a150.7,150.7,0,0,0-29.57,18.28c6.22-4.92,12.65-9.84,19.32-14.6a606.05,606.05,0,0,0-49.46,39c-5.92,4.81-16.22,2-21.13,13.21,23.28-13.39,46.87-28.76,71.11-45.7C500,930,507.53,926.84,509.64,923.17Z" />
    <path d="M550.65,909.85a30.12,30.12,0,0,1-.4,4.21c.16-.8.37-2,.69-4.19Z" />
    <path
        d="M1617.42,1045.19a43.06,43.06,0,0,0-4.77-2.09c9.74,11.05,23.58,18.22,34.73,27.47C1637.31,1061.85,1627.36,1053.38,1617.42,1045.19Z" />
    <path d="M924.85,409.27A44.74,44.74,0,0,0,912,415.88,57.2,57.2,0,0,1,924.85,409.27Z" />
    <path d="M847.07,589.73c-3.05,20.32-1.26,42.77,2.82,63.1-3.54-18.8-3.81-37.68-2.68-55.85Z" />
    <path d="M851.84,570.44a279.92,279.92,0,0,1,12.82-53A237.24,237.24,0,0,0,851.84,570.44Z" />
    <path
        d="M1148.66,284.75c-116.22-18.14-240.15,9.38-325,81.53C908.63,294,1034.31,267,1148.66,284.75Z" />
    <path
        d="M1167.1,299.48c-57.42-12.61-118.28-12.74-176.8-.56s-115.18,36.62-160.41,76.16c-45.36,39.18-79.74,91.59-95.37,149.79-16.11,58.08-12.91,121,4.68,178.8,2.8,7.32,9.59,26.17,20,45.68s24,39.59,33.24,52c-29.65-42.27-50.18-82.93-58.58-128.14-6.86-33.57-9.32-68-5.42-103.27a324.79,324.79,0,0,0,10.13,121c-18.61-67.66-16.5-145.22,15.35-212.7,36.87-80.3,111.32-143,198-169.18,31.61-9.83,62.53-15.06,96.9-16.89S1121.1,291.51,1167.1,299.48ZM728.4,569.93c.37-3.35.77-6.7,1.26-10.06C729.18,563.21,728.76,566.57,728.4,569.93Z" />
    <path
        d="M1402.81,482.28a273.92,273.92,0,0,0-100.29-134.2,317.3,317.3,0,0,0-38.39-22.84c55.86,29.56,105,77.42,130.21,137.83,23.58,54.12,31.4,114.45,26.53,171.81C1425.39,583.08,1419.77,530.64,1402.81,482.28Z" />
    <path
        d="M1461.94,312c-27.75-35.57-69.37-71.92-111.66-96.73A485.93,485.93,0,0,0,1241.41,167c-131.77-38.55-283-27-411.3,43.87C701.76,281.08,607.45,420.83,596.44,577a458.18,458.18,0,0,0,31.63,207.76c13.59,33,29.65,65.46,52.53,94.25,22.53,28.46,49.15,52.36,68.4,80.73,20.47,28.15,26.36,61.41,25.63,97.06.26,17.74.46,36.34,5,54.91,4.76,18.47,14.49,36.26,29.05,49.12,29.63,26.18,68.46,31.87,103.66,35.16,35.89,2.78,71.34,1.87,106.41,1.18s70.07-2.07,104-.59c34.33,1.7,68.83,4.8,103.53,3.94,17.35-.51,34.82-1.93,52.18-6.32,16.91-4.49,35.63-12.73,46.21-30.23,9.83-17.68,10.61-37.37,3.06-55.86-8.71-18.78-27.39-28.32-43.7-33.12-33.77-9.47-66.78-8.18-98.55-7.72-31.82,1.47-62,1.09-93,.79-61.14-.39-119.95.17-174.52-6.14,44.66,6.16,110.58,6.25,176.84,6.45,65.7,2.8,132-6.31,179.6,6a215.06,215.06,0,0,0-33-3.31c10,1.64,33.48,2.79,57,14.26,11.48,5.83,22.51,16.12,26.38,28.78,4,12.45,3,24.38.73,33.6a67.3,67.3,0,0,0-.11-28.5c.24,1.12.44,2.34.61,3.68-2.7-15.57-14.64-31-31.55-37.36-19.23-8.47-41.23-10.65-63.08-11.7-44.1-1.33-88.63,2.69-128.76,1.43-80.08.87-139.53,0-126.75,2.13,4.45,1,15.44,1.77,31.46,2.29-39.53-.12-76-1.35-111.27-5.82,6.9-125-46-173.23-94.56-238.89-31-42-60.68-84.24-74.65-134.38C675.05,514.55,778,373.92,896.11,317.43c176.35-84.34,416-36.62,497.69,129.4,33.14,67.32,40.3,143.5,30.52,211.88q1.28-9.19,2.12-18.43c-.49,5-1.1,10-1.76,15a410,410,0,0,1-8.09,43c-.15.6-.31,1.2-.46,1.8-.33,1.32-.68,2.63-1,3.94q-3.87,14.55-8.74,28.24c9.51-30.77,17.89-70,18.22-102.19-5.73,65.55-24.53,133.09-67.7,183.64-21.39,25.57-44.67,50.06-63.36,78.54-9.13,14.24-17.67,29.62-20.31,47.29-3.46,18,5.35,36.58,18.43,48.14,13.18,12.91,33.93,15.52,50.59,9.87,17-5.6,30.73-16.85,42.79-28.76,24-24.49,42.66-52.29,62.8-79.29,19.42-27.49,38-55.52,54.47-85A376.83,376.83,0,0,0,1529.38,738,400.88,400.88,0,0,1,1476,846.14c-27.47,41-55.85,80.37-87.72,115.62,29.34-32.94,54.77-68.91,79.67-105.27s47.39-75.07,59.73-117.85c27.23-84.45,27.48-177.41,2-263.22-27.4-91.23-83.29-175.1-162.19-229.08-78.26-54.36-172.61-83.24-267-86.61a440.81,440.81,0,0,1,54.24,3.6,546.88,546.88,0,0,0-198.15,10,501.18,501.18,0,0,0-57.77,18.39c6.73-2.72,23.12-8.82,34.92-12.34-99.1,27.83-188.7,88.84-247.91,171.79-59.74,82.5-89.12,184.55-84.6,283.36-.7-15.87-.9-23.61-1.1-30.95-.3,10.65-.05,21.39.43,32.18a466.14,466.14,0,0,0,12.43,84.76,433.56,433.56,0,0,1-12.43-84.76c-.63-11.77-.79-23.59-.51-35.23a214.67,214.67,0,0,1,1.65-29.28c4.67-54,19.61-102.61,34.82-136.49C693.55,304.06,808.28,213,927,180.23c27.86-7.64,21-5.15,6.69-.83,7.51-2.28,15.17-4.06,22.85-6.05a528.91,528.91,0,0,1,140.13-15.68,515.58,515.58,0,0,1,156.08,28.67c9.67,3.39,19.3,7,28.76,11-4.75-2-9.57-3.9-14.39-5.68C1330,216,1388.46,252.73,1433.53,302.46c45.07,49.54,77.39,109.55,96.13,173a450.13,450.13,0,0,1,7.53,234.08c35.22-140.2-5-299.22-101.3-406.47,63.34,67.89,107.32,164.9,115.38,267.52a463,463,0,0,0-56-187.6c-25-46.84-59.71-87.8-87-112.57,50.94,45.85,81.79,95.27,104.79,143.49-24.15-53.2-58.35-102.73-102.74-142.76-38.92-34.75-84.32-62.09-133.06-81.93,54.23,22,106.58,53.65,149.52,96.5,48.37,48.34,83.51,108.72,103.86,171.12-5-14.51-11.07-28.65-17.58-42.93,43.63,96.43,53.42,206.69,26.17,307.15a455.06,455.06,0,0,1-26.47,73.25c-11.89,23.4-25.65,44.82-39.73,66.19s-29.1,42.16-44.45,62.24c-15.2,20.26-30.71,41.09-50.85,58.49,22.17-18,40.79-43.47,60.3-69.25a1015.1,1015.1,0,0,0,57.85-85.51c37.92-61.78,55.21-135.17,59.32-198.31a447.25,447.25,0,0,1-39.89,165.58c-26.7,51.66-60.1,98-95,143.79-17.83,22.66-36.44,46.75-65.32,61.79-14.21,7.4-33.06,10.22-49.49,4.31-17.77-7-28.24-20.06-35.59-35.82-6.77-17.13-3.19-35.22,2.56-49.53,5.9-14.64,14-27.5,22.62-39.64,17.32-24.21,37.15-45.68,55.5-67.53,36.76-41.69,55-97.57,63.54-152.5,8.07-55.43,4.24-112.56-12.74-165-16.59-52.73-48.45-98.85-91.2-131.77-42.48-33.17-93.37-53.89-145.13-64,73,15.06,143.09,51.55,188.7,110.09,43,55,61.72,127.56,60.39,198.58a349.83,349.83,0,0,0-8.24-80.42c10.82,50.41,10.33,101.77.5,151.39-10.5,49.49-28.21,98.4-64.87,137.48.16-.25.48-.67.74-1-20,23.58-41.59,47-59.54,74.87-8.72,14.1-17.17,29.37-20.31,48.44-4.18,19.26,5,42.43,18,55a59.85,59.85,0,0,0,25.9,16.69,64.09,64.09,0,0,0,30,1.71c19.81-3.63,35.11-14.39,47.9-25.37,25.57-22.64,43.36-49.17,62.27-73.58,18.91-25.33,36.6-51.18,53.29-78,8.26-13.56,16.38-26.87,23.51-42.42,6.35-14.67,12.37-29.5,17.23-44.72a457.16,457.16,0,0,0,20.75-188.22,388.49,388.49,0,0,1-3.94,127.41c-7.09,36.39-17.94,68-31.7,100.64-20.76,45.81-47.74,83.4-75.24,122.37-14.24,18.85-27.31,37.62-43.54,56.3-16.24,18-34.41,37.08-62.87,46-14.29,4.09-30.52,4.08-45.24-2.66-13.13-6.06-21.66-15.14-28.37-25.15a46.72,46.72,0,0,1-3.38-5.32c.55.91,1.11,1.82,1.69,2.73a65.36,65.36,0,0,1-5.47-11,60.14,60.14,0,0,0,2.8,6.56,57.28,57.28,0,0,1-5.86-17.19,61.35,61.35,0,0,0,3.06,10.63,69.76,69.76,0,0,1-3.84-17.28c0,1,.13,2.08.25,3.12-.27-2.12-.39-4.23-.46-6.33,0,1.06.11,2.14.21,3.21,0-.09,0-.19,0-.29a70.16,70.16,0,0,1,.67-15.3,45.17,45.17,0,0,0-.71,4.94,63,63,0,0,1,1.25-8.5c2.78-13.84,8.27-25.48,14.19-36.18.38-.66.79-1.3,1.18-2q-3.9,6.78-7.25,14.17c2-4.42,4.24-8.64,6.51-12.69,13.19-22.85,28.88-41.59,44.43-59.88,15.35-18.15,32.11-35.84,44.25-53.7C1376,764,1386.13,742.2,1394,718.65a271.87,271.87,0,0,1-23.37,55.25c-9.86,18.18-23.78,33.15-28.41,40,45.72-49.57,65.24-119,70.23-186,4.27-67.46-9.56-136.76-44.06-192.75-20.93-33.7-40.4-49.22-50-57.74-10.24-8-12-8.72-8.49-4.93,7.54,7,34.39,33.64,50.85,60.41,42.41,67,53.16,151,41.19,227.49-6.13,38.4-17.93,75.84-36.14,108.5-16.79,30.41-48.23,58.9-73.22,92.4-12.73,16.92-25.41,34.75-33.75,58.08-3.85,11.71-6.72,25.59-4,40.68a62.94,62.94,0,0,0,7.84,21.21,87.32,87.32,0,0,0,12,16.1,72.64,72.64,0,0,0,17,13.59,65.3,65.3,0,0,0,21.5,7.34c14.45,2.51,29.38-.13,41.4-5.21,24.29-10.46,40.34-26.83,54.76-42.63,14.27-16,26.27-32.89,38-48.43,12.33-16.37,24-33,35.26-49.94s22.14-34.16,32.44-52.28c10.67-18.24,19.32-39.09,26-58.38C1593.92,611.62,1562.91,435.75,1461.94,312ZM1222.45,170.45c11.4,3.14,22.48,6.72,33.56,10.65C1244.89,177.18,1233.67,173.55,1222.45,170.45ZM1333.4,820c-13.46,15.71-27.55,31.82-40.41,49.29C1306,851.48,1320.08,835.49,1333.4,820Z" />
    <path
        d="M847.65,536.71c-2.23,10.74-8.3,19.66-7.23,35.72,6.51-39.07,18.23-77.88,37.19-114.32,0-3.05,6.35-12.37,8.64-17.29-10.54,14.29-17,27.15-23.08,42.74q3.08-8,6.67-15.87A305.92,305.92,0,0,0,847.65,536.71Z" />
    <path
        d="M1269.31,981.66l1.06,1.59c.25.35.5.71.77,1C1270.52,983.46,1269.91,982.58,1269.31,981.66Z" />
    <path
        d="M898.43,977.47c6.45,24.44,9.09,49.92,9.1,75.75C907.74,1029.9,905.47,1003.47,898.43,977.47Z" />
    <path
        d="M979.28,782.89c16.69-9.93,28.6-35,27.53-47.63-1.47-20.08-9.87-28.43-16.11-38.42-6.78-9.43-13.88-17.85-20.58-26.51s-13.3-17.49-16.77-25.82A124.39,124.39,0,0,1,946,612.59a191.66,191.66,0,0,1,5.79-62.22c2.88-10.34,5.94-20.73,11.08-29.12,5.27-8.82,12.43-17.24,19-26.66,14.09-17.92,21.56-47,6-68.94-17-21.57-43.21-23.4-64.18-19.62,9.25-1.41,21.62-2.18,33.8.78,12.19,2.68,23.59,10.66,27.92,18.6-1.67-1.24-3.29-2.48-5-3.57,2.28,3.22,9.08,13.94,9.18,20.3-1.32-2.42-1.85-5.4-3.05-8.32a26.83,26.83,0,0,1,1.69,5.93C985.4,428.46,971.26,416,957.71,414c-13.24-2.81-23.24,0-20.71,1.55.79.63,2.58,1,5,1.3a57.9,57.9,0,0,0-13.75,2.72C881.37,435.27,843.56,559,853.4,636.74c.58,4.6,1.36,9.26,2.3,14-.09-.4-.21-.8-.31-1.21l.46,2.33c.33,1.53.69,3,1.07,4.52q.83,3.61,1.79,7.23c-2.21-4.57-4.42-10.38-6.27-15.13C859.77,690,877.58,731,908.83,761c-11.7-11.35-20.35-24.73-26.77-38.18a167.75,167.75,0,0,0,24.23,33.79c9.6,9.95,21.45,19.43,36.61,21.29,32.2,1.91,59.93-37.25,41.28-65.19a39.45,39.45,0,0,1,4.55,7.56c-4.14-10.11-10.05-18.75-15.74-27.46l-6-7.37c.82.82,2.62,2.89,4,4.3-8.81-13.31-18.57-26.32-24.11-40.39-4.9-14.49-6.91-30-7-45a12.71,12.71,0,0,0,.9,4.67l-.19-4.86a118.2,118.2,0,0,1-.09-13c.09,4.3-.09,8.68.09,13,.13,1.78.18,3.57.36,5.32a9.43,9.43,0,0,1,.48,4.4c1,8.11,2.32,15.48,3.16,21,1.91,21.59,17.47,36.63,26.66,53.44,2.32,3.87,1.34,3.16-.3,1.45l2.06,3.07a116.31,116.31,0,0,1,12.6,18.49c3.69,7.49,7.63,16.28,6.12,25.92a42.88,42.88,0,0,1-.92,5.16l.47-2.59c-4.83,22.22-25.67,40.08-48.36,38.11-13.36-1.14-24.73-8.57-34.07-16.9,8.27,7.87,18.29,15.18,30.67,17.54s25.33-2,34.91-9.41c-9.57,10.32-28,15.3-43.39,10.06,9.16,3.28,20,3.85,29.36.32,9.2-2.78,17-8.48,22-12.8-8.56,8.75-18,14-27.83,16.38,21.84-4.35,39-22.07,43.11-44.83a31.23,31.23,0,0,0,.4-7.29,30.05,30.05,0,0,1-.4,7.29c-3.64,24.46-25.19,47.44-51.86,46.28a48.29,48.29,0,0,0,8.75-1.45c-21,3.88-38.53-8.39-50.28-19.77-12.31-12-21.61-25.77-29.7-40,6.25,16.79,24.08,37.45,41.11,51.24-60.72-47.4-80.18-132.36-74-202.34-3.14,24.82-4.32,50.25-.83,76.57-.7-4.88-1.68-10.55-2.42-16.14a219.32,219.32,0,0,0,11.67,52l-.16-.17c6.8,19.53,15.21,38.48,26.29,56.35,11.38,17.56,24.15,35.4,47,47.05-19.88-6.3-24.57-18.21-32.73-26.66-19.55-21.48-32.24-46.52-41.28-70.69,2.84,7.56,6,15,9.55,22.26a198.77,198.77,0,0,1-15.82-46.23c2.17,4.87,4.84,15.77,7,17.92a273.08,273.08,0,0,1-14.52-69.1c-.91-28.06-5.44-12.72-5.31-1a248.34,248.34,0,0,0,16.43,83.33c9.91,25.5,22.68,49.67,43.47,70.71,10.23,9.34,21.95,18.75,38.62,23.89C945.89,797.93,966.31,793,979.28,782.89Z" />
    <path
        d="M1527.82,982.88c-3.91-.85-8-16.14-7.18-26.76-3.47,16.26,2.15,26.92,5.92,34.15a73.43,73.43,0,0,0,10.68,14.1,83.09,83.09,0,0,1-9.77-11.46c6.13,9.11,12.86,14.85,19.3,20.78a202.18,202.18,0,0,0,28,19.88c6.34,4.11,6.56,14.73,18.82,16.12-10-9.26-19.76-17.57-31.59-27.8C1550.71,1011.22,1538.73,1002.21,1527.82,982.88Z" />
    <path
        d="M1946.66,555.59c-14.37-10.2-26.68-11.29-37.05-12.21-20.68-.86-37.87,2.13-55.66,3.93-31.55,2.8-61.68,4.73-94.23,3-15.9-.65-31.47-1.94-46.88-3.63-16-1.14-29.07-5.32-51.53-2.5,20-1.2,39.18.34,50.57,6.18l-3.7,2.12c2.46,2.72,10.57,4.22,14.66,6.06-1.83,1-3.89.13-6-.76l4.14,1.78c-14.8-.59-47.8-3.65-43,5a9.82,9.82,0,0,0,4.5,2.81,51,51,0,0,0-9.87,2.93c-15.55,6.75-27.22,16-20.31,37.24,9.18,28.23,84.11,18.56,129.31,17.1l-1.63.19h1.71c1.23-.08,2.42-.19,3.61-.3,1.77,0,3.48-.06,5.14-.06-3.59,2-7.93,3.68-11.38,5.82,29.36,1.49,59.87,4.31,90.55,2.34a153.21,153.21,0,0,1-33.4-4.65c19.82,1.4,39.71,3.17,60.43,1.75,10.77-2.2,22.24-4.08,32.06-12.68,5.2-5,6.39-11.7,7.19-17,.81-5.79.43-12.29-2.47-18.09a15.28,15.28,0,0,1,4.55,6.44c-2.29-9.55-10.08-16.88-17.66-20.15a40.8,40.8,0,0,0-7.59-1.15,45.44,45.44,0,0,1,4.87-.08c-24-8.63-47.51-7.53-69.79-7.83a5,5,0,0,0,3.43-1.73l-3.62.29c-3.24.49-6.47.92-9.59,1.15a57.89,57.89,0,0,1,9.59-1.15l4-.59a2.93,2.93,0,0,1,3.3-.48c6.09-.88,11.84-1.39,16.11-.45,16,3.68,32.28.23,46.65,8.53,3.28,1.86,2,2.26,0,2.26a29.65,29.65,0,0,1,2.72,1.23c5.8,1.39,12.34,4.83,16.21,11.4,4,7.5,4,15.85,2.54,22.57a25,25,0,0,1-.75,4l.34-2c-1,3.54-2.48,9.28-6.57,13.33a32.29,32.29,0,0,1-11.91,7.55c-8.06,3-15.87,4-23.53,4.65a243.85,243.85,0,0,1-27,2.9c16.54.31,33.09.28,51.39-5-11.16,6.92-23.8,9.65-36.16,10.83a144.82,144.82,0,0,0,25-2.94,134.55,134.55,0,0,0,20.36-4.16c-10.34,5.27-17.38,6.38-24,8.91,7.48-1.26,15.2-2.46,24.53-7.34a36.94,36.94,0,0,0,14.1-12.63c4.55-8.11,4.67-10.74,6.12-15.84a57.86,57.86,0,0,0,1-5.86,45.38,45.38,0,0,1-1,5.86c-.47,2.76-1.27,5-1.92,7.48-.38,1.81-2.76,7.91-5,10.74a42.9,42.9,0,0,1-15.84,13.44,56.63,56.63,0,0,1-27.55,6.27c1.86-.8,3.66-1.39,5.61-2.12-26.5,3.36-49.51,1.55-72.75,1,12.22,5.84,31.27,0,46.25,3.58-26.35,3-53.13.49-78.55-.31-24-.83-49.82,2.88-75.28,7.88,18.19,0,36-.85,52.93.81-3.18-.32-6.86.34-10.54.9,12.24-.74,21.72-.85,33.59-.75l-.14.19c27.47.77,56,6.2,87.49,6.75-12.22,7-19.93-1.38-28.08-1.11-22.36,1.6-44.3-.12-62.45-.08,7.2,0,14.82.1,22.56.19a212.83,212.83,0,0,1-31.42-2.88c3-2,10-.3,11.9-2.87-14.66-.58-28.85,1.54-44.86,5.26-19.16,3.47-8,11.21-.14,10.57,9.71-.81,18.94-1.25,27.25-1.28,7.89,0,15.37.58,24.49,1.21,17.68,1.25,36.31,2.42,56.13.3,19-4.07,37.09-4.73,63.24-14.83,7.57-2.89,19.63-6.42,31.2-21.91a50.85,50.85,0,0,0,6.47-12.44,62.77,62.77,0,0,0,1.88-6.57,50.64,50.64,0,0,0,1.46-10.21C1969.69,589.55,1962,566,1946.66,555.59Z" />
    <path
        d="M1801.56,1064.61c-8.82-8.88-17.43-14-25.5-18.54-16.23-8.77-30.72-15.46-45.88-24.47-25.83-17.12-54.79-33-80-51.23-13.3-8.92-21.57-18.31-33.61-30.43-5.85-5.76-12.21-11.9-21.36-17.3a57.39,57.39,0,0,0-35.94-7.51c11.21-.81,26.67,2.06,36.07,8.28,9.75,5.92,15.49,12.84,18.12,18.76l-4.41-.75c.47,3.74,5.9,10.15,7.83,14.19-2.07-.4-3-2.42-4.13-4.43,1.08,2,1,2,2.07,4-6.09-4.78-14-13.59-23.55-18.41-9.62-5.06-19.34-3.6-16.9.51a12.62,12.62,0,0,0,3.69,3.74,26,26,0,0,0-10,1.18c-58.35,18.9,7.82,60.77,27.08,74.48,18.59,13.23,39.47,28.88,59.59,44l-1.28-.79,1.32,1.07c1,.71,2.06,1.4,3.08,2.07l4,3c-4-.58-8.54-1.95-12.57-2.5a603,603,0,0,0,72.58,54.53,151.35,151.35,0,0,1-24.55-23.06c15.43,12.22,29.8,26.28,49.66,35,10.09,4,27,3.6,34.14-8.5,6.72-10,8.08-23.75,2.67-34.58a15.74,15.74,0,0,1,4.53,5.86c-3-8.65-8.29-15.29-13.83-20.88a65.61,65.61,0,0,0-6.37-3.65c.91.24,2.87,1.12,4.39,1.66-18-16.24-36.56-29-54.23-42.48a5,5,0,0,0,3.76.67l-3-1.92c-2.85-1.56-5.69-3.13-8.31-4.84a58.05,58.05,0,0,1,8.31,4.84l3.49,1.88a2.88,2.88,0,0,1,2.9,1.57c5.36,2.89,10.22,5.73,13.07,8.9,10.78,12,25.85,17.09,35,29.32,2.15,2.8.9,2.75-.91,2.06l2,2c4.77,3.1,9.44,7.11,12.51,12.89a36.14,36.14,0,0,1,3.27,21.9,20.37,20.37,0,0,1-.76,4.23l.39-2.11c-2.33,8.63-6.67,17.79-16.55,22.48-9.81,4.2-19.11,1.59-26.37-1.29-9.15-2.89-17.31-7.27-25.11-12A117.22,117.22,0,0,0,1744,1131.3c8,3.35,18.29,7,30.27,2.61-15.42,8.93-31.3,3-42.49-2.32,7.47,4.07,15.64,8.08,26.76,9.17,8.29,1.87,19.83-1,26.6-5.11-11.95,9.45-24.8,8.71-32.8,8.25,8.49,2.23,22.81,2.08,33.52-6.74,10.31-9,13.85-17.64,16.36-28.45a46.23,46.23,0,0,0,.79-6.57,39.33,39.33,0,0,1-.79,6.57c-2.61,11.49-5.61,22.48-19.42,32.66a38.22,38.22,0,0,1-37.65,1.89c2.29.24,4.71.44,7.19.64-30.65-9.23-46.15-26.74-64.83-39.37,6.3,11.22,24.79,18,36.18,29.57-46.83-27.06-83.51-65-128.87-86.5,13.56,10.48,27.09,21.22,39.69,33.63-2.37-2.35-5.71-4.24-8.92-6.19,9.68,7.12,18.54,14.19,28.8,21.44l-.23.07c23.89,16.68,39.46,36,70.18,56.12-15.93-1.37-17.84-13.13-24.89-17.71-19.35-12.22-34.84-24.2-51.11-35.73l18.93,13.36a188.38,188.38,0,0,1-25.32-21.4c4,.55,9.15,6.36,12.21,5.36a263.2,263.2,0,0,0-40.3-25.22c-16.53-9.22-13.08,3.7-6.88,8,31.35,22.09,56,46.82,89.41,66.18,9.15,4.21,18.56,8.87,30.37,13.19,11.71,3.42,26.57,10.58,52.24,3.15,14.78-3.51,29.3-17.88,33.9-28.23,5.25-9.82,7.26-20.1,7.22-27C1819.54,1088.62,1810.2,1072.81,1801.56,1064.61Z" />
    <path d="M1561.36,921.62a40,40,0,0,0-10,4C1554.82,924,1558,922.91,1561.36,921.62Z" />
    <path d="M1654.56,555.29c3.3-1.92,6.36-3.35,9.47-4.84A38.66,38.66,0,0,0,1654.56,555.29Z" />
    <path
        d="M1742.73,636.52a50.92,50.92,0,0,0-5.12,1.38c14.84,2.48,30.23-1.18,44.37-1C1769,636.46,1755.78,636.56,1742.73,636.52Z" />
    <path
        d="M1575.06,1004.84c8.56,9.74,19,18,29.68,25.53C1594.32,1022.09,1584,1014.1,1575.06,1004.84Z" />
    <path d="M1318.26,1102.78a42,42,0,0,0-5.45-6.43A55.26,55.26,0,0,1,1318.26,1102.78Z" />
    <path d="M1322.55,1110.45a41,41,0,0,0-2.84-5.51A46.3,46.3,0,0,1,1322.55,1110.45Z" />
    <path d="M1527.47,992.91a82.39,82.39,0,0,1-7-12.88A72.08,72.08,0,0,0,1527.47,992.91Z" />
    <path
        d="M1265.27,917.44c-.36.93-.74,1.84-1.08,2.79a92.1,92.1,0,0,0-4.16,16.51c0-.18.06-.37.1-.55A100.5,100.5,0,0,1,1265.27,917.44Z" />
    <path
        d="M919.72,1422.7c12.51,1.31,23.1,10.51,40.61,4.94-21.68-2.15-43.79-4.63-67.76-12.21-11.82-4.07-25.07-8.94-37.57-21.92-6.07-5.69-11.23-17.58-12.21-23.83a85.12,85.12,0,0,1-2.61-21.17c-3.22-3.89,1-21.43,4-29.83-7.48,12.65-9.11,26.37-8.4,37.85a87.18,87.18,0,0,0,2.77,16.5,46.25,46.25,0,0,0,2.59,7.56,64.79,64.79,0,0,1-4.36-13.74,98.59,98.59,0,0,1-1.76-10.93,92.09,92.09,0,0,0,3.26,17.33c3.07,13.93,15,27.15,25,33.06C884.06,1418.87,902.23,1420.76,919.72,1422.7Zm-75.46-35.89a45.89,45.89,0,0,0,3.4,5A43.68,43.68,0,0,1,844.26,1386.81Z" />
    <path d="M835,1341.29a72.07,72.07,0,0,0,.06,14.63A84,84,0,0,1,835,1341.29Z" />
    <path
        d="M426.1,1002.69a36.67,36.67,0,0,0,3.46-3.73c-13.31,5.27-25.31,16-37.67,24.19C403.48,1015.83,415.09,1009.23,426.1,1002.69Z" />
    <path
        d="M344.76,669.4c17.6,1.2,36.1,2.38,55.85.34,19.06-4,36.95-4.46,63.41-14.6,7.59-2.86,20.21-6.76,31.6-22.75a49.94,49.94,0,0,0,6.22-12.7,60.12,60.12,0,0,0,1.71-6.64,50.21,50.21,0,0,0,1.18-10c.3-13.66-6.65-36.11-21.54-46.95C469,545.31,456.29,543.89,445.9,543c-21-1.06-38.14,2.11-55.94,4-15.83.92-31.61,3.16-46.53,3.68-15.54.53-31.85.41-47.7-.11s-31.52-1.63-46.8-3.32c-16.36-.92-27.64-5.86-51.59-3,21.45-1.26,38.89,1.09,50.65,6.69L244.32,553c2.43,2.73,10.51,4.21,14.61,6-1.82,1-3.88.13-6-.75l4.13,1.77c-14.85-.32-47.46-4.09-42.93,4.64a9.63,9.63,0,0,0,4.38,2.92,46.12,46.12,0,0,0-9.88,2.71c-15.55,6.75-27.22,16-20.31,37.23,8.8,27.06,77.28,18.16,129.43,17l-1.59.18,1.71,0c1.28-.07,2.55-.17,3.8-.27,1.67,0,3.32,0,4.95,0-3.59,2-8,3.65-11.45,5.73,29.56,1.67,59.88,4.21,90.6,2.46a156,156,0,0,1-33.38-4.74c19.81,1.42,39.68,3.28,60.41,2,10.78-2.13,22.31-3.94,32.11-12.72,5.15-5.14,6.1-11.91,6.79-17.2.68-5.77.27-12.17-2.5-18a15.86,15.86,0,0,1,4.52,6.39c-2.27-9.4-9.65-16.89-17.26-20.44a44.2,44.2,0,0,0-7.61-1.29c1-.09,3.2,0,4.89,0-24-9-47.6-7.64-69.87-7.83a5.07,5.07,0,0,0,3.42-1.75l-3.62.32c-3.23.5-6.46,1-9.58,1.21a57.7,57.7,0,0,1,9.58-1.21l4-.62a2.94,2.94,0,0,1,3.3-.5c6.1-.9,11.84-1.47,16.12-.54,16,3.55,32.38.18,46.76,8.64,3.27,2,2,2.37-.07,2.28l2.72,1.28c5.79,1.51,12.33,5.16,15.89,11.81,3.75,7.44,3.86,15.58,2.57,22.28a24.54,24.54,0,0,1-.65,3.94l.3-2c-.92,3.53-2.22,9.34-6.27,13.51a31.87,31.87,0,0,1-11.91,7.75c-8.1,3-15.92,4-23.59,4.58a243.73,243.73,0,0,1-27,2.78c16.53.37,33.07.48,51.45-4.79-11.23,6.94-23.89,9.59-36.26,10.75a148.59,148.59,0,0,0,25-2.83,123,123,0,0,0,20.51-4.25c-10.43,5.34-17.54,6.49-24.18,9,7.48-1.23,15.3-2.48,24.7-7.42A36.47,36.47,0,0,0,481.16,620c4.39-8.25,4.4-11,5.73-15.94.3-1.93.73-3.7.91-5.75-.16,2.08-.59,3.83-.91,5.75-.4,2.73-1.15,4.92-1.72,7.42a36.23,36.23,0,0,1-4.81,11,41.81,41.81,0,0,1-15.93,13.85,56,56,0,0,1-27.71,6.29l5.62-2.08c-26.54,3.21-49.51,1.29-72.69.76,12.18,5.84,31.21.07,46.17,3.74-26.35,2.8-53,.3-78.41-.41-24.52-.7-50.08,2.26-75.38,7.33,18.07,0,35.61-.62,52.6,1.28-3.18-.37-6.88.25-10.55.76,12-.58,22.22-.55,34.06-.53l-.14.19c27.41.66,55.8,6.16,87.24,6.87-12.28,7-19.88-1.49-28-1.23-22.34,1.52-44.1-.19-62.26-.07,7.23-.05,14.81,0,22.52.13a214.91,214.91,0,0,1-31.55-2.82c3.18-2,10.16-.31,12.07-2.88-14.77-.46-29.66,1.35-45.3,4.9-19,3.3-7.95,11.13-.24,10.57A320.79,320.79,0,0,1,344.76,669.4Z" />
    <path d="M862.49,1566.8a107.34,107.34,0,0,1,1.47-17.21A79.83,79.83,0,0,0,862.49,1566.8Z" />
    <path
        d="M1323.24,1112.14a50.2,50.2,0,0,1,2.21,7.13,38.11,38.11,0,0,0-2.1-6.86C1323.32,1112.32,1323.28,1112.23,1323.24,1112.14Z" />
    <path d="M909.57,1504.38c4.16-2,8.27-3.5,12.45-5A55.33,55.33,0,0,0,909.57,1504.38Z" />
    <path d="M190.59,555.29c3.29-1.92,6.36-3.35,9.47-4.84A38.66,38.66,0,0,0,190.59,555.29Z" />
    <path
        d="M318,636.87c-13.06-.63-26.18-.74-39.2-.85a50.57,50.57,0,0,0-5.11,1.35C288.49,639.91,303.82,636.48,318,636.87Z" />
    <path d="M592.17,950c.08-.34.16-.73.27-1.23C592.35,949.17,592.25,949.58,592.17,950Z" />
    <path
        d="M576.51,911.11c-11.09-4.91-20.81-6.43-29.94-7.88,7.65,2.31,18.26,3.16,30.18,8.64,12.42,4.54,22.82,20,21.39,29a50.55,50.55,0,0,0-4.24-4.58c0,5,.31,14.58-1.71,19.66-.8-1.83-.5-3.81,0-6-.34,1.44-.48,1.85-1,3.83-.41-4.62-.82-9.67-3.58-15.71a28.09,28.09,0,0,0-13.86-12.59c-10.75-4-18.47-2.39-16.59,1.55a8.33,8.33,0,0,0,3.53,3.74,58.9,58.9,0,0,0-10,.62c-1.74.24-5.27-.83-6.77,0-38.53,21.23-61.3,42.72-105,74.48-7.68,5.59-23.43,15.28-39.58,27l1-.89-1.42,1c-1,.76-1.89,1.53-2.79,2.3q-2.06,1.53-4.1,3.09c1.66-3.74,4.28-7.69,6.06-11.4-13.06,7.94-25.63,17-36.6,28.65-9.94,11-23,27-16.58,47.16-4-15,4.4-27.2,12.46-34.09-6.09,7.8-12.17,17.5-10.84,29.33,1.38,10.39,9,23.2,22.6,24.47,25.86-1.93,41.37-18.65,58.95-30.3a22.21,22.21,0,0,1-3.55,5.43c5.72-5,11.24-9.56,17.23-14.08l4.38-5.52c-.39.85-1.56,2.55-2.27,3.92,18.37-13.91,37.43-26.65,55.64-39.15a4.93,4.93,0,0,0-1.85,3.33l2.8-2.25c2.39-2.18,4.82-4.33,7.3-6.23a59.44,59.44,0,0,1-7.3,6.23l-2.91,2.68a2.86,2.86,0,0,1-2.41,2.23c-4.46,4.11-8.7,7.78-12.57,9.5-14.74,6.57-24.29,18.8-36.86,24.92-2.86,1.55-2.7.4-1.84-1.26l-2.11,1.6a79,79,0,0,1-11,11.41c-4.79,3.54-9.7,7.07-14.77,10.41l-2.85,2.12,1.37-1.15c-13.17,7.89-27,17.15-45.35,16.16-11.75.16-21.37-10.48-24.22-19.71,2.1,8.41,9.31,19.47,21.15,21.52,11.1,2,20.33-1.27,28.64-4.1a48.87,48.87,0,0,1-18.24,8.47c-7.29,1.79-18.56.77-26.3-6.11,10.18,9.41,25.06,8.93,33.84,6.21,7.45-1.34,13.93-3.66,18.89-4.3a187.8,187.8,0,0,1-23.32,9.29c18.55-3.26,30.75-11.17,43.24-18.44-13.32,7.71-26.07,21.56-51.22,20.36a69.75,69.75,0,0,0,8-1.92c-8.15,1.38-20.14.49-29.35-6.5-9-7.13-12.6-15.25-14.93-23.25-5-20.7,5.5-35.37,12.9-45.46-6.43,4-12.24,12.36-15,24.51a46.49,46.49,0,0,0,.35,20.06,87.11,87.11,0,0,0,6,16.83,51.28,51.28,0,0,1-7.18-13,43.25,43.25,0,0,1-2.45-17.27c.86-11.35,5.25-20,9.68-27.07,9.24-13.95,20.1-23.48,30.83-32.56,21.14-17.8,44.95-32.36,60-49.24-12.68,9.09-28.21,17.71-44.74,26.77,3.12-1.68,6.15-4.39,9.18-6.91-10.36,7.26-20.4,14.1-30.92,23.3v-.26C352,1034.09,339.27,1044,327.33,1062c-5.6,9.14-11.84,22.7-9.82,40.38,1.62,9.59,3.28,14.3,6.57,21.1a55,55,0,0,0,17.18,20.06c-15.65-6.93-20.41-18.23-22.41-25.59-1.66-6.28-2.62-18.56-2.06-26.65,1.07-25.22,12.3-38.2,20.38-48.81,8.78-10.5,17.6-18.24,25.82-25.36a233.85,233.85,0,0,0-19.65,18.77c9.76-10.44,18.75-17,29.91-23.55-1.86,3.82-9.4,7.93-9.31,11.29,13.61-11.36,26.86-21.85,38.7-33.17,14.48-12.55,1.13-13.68-5.23-9.2-16.34,11.56-33.45,22.2-50.26,36.41-8.41,7.19-16.9,15.24-25.13,26.73-7.44,11.23-18.25,28.12-15.38,55.37a65.05,65.05,0,0,0,5.19,16.83,89.17,89.17,0,0,0,7.07,12.28c5.74,8.57,16.38,18.77,29.61,23.46,27.76,8.63,43.74-.75,54.76-5.5,13.72-5.22,27-14,31.49-18.54,19.57-25.52,40.17-49.55,66.43-72.36,12.14-9.38,24.5-19.41,37-29.37,12.66-10.62,24.26-18.09,39-29.31,6.93-5.72,14.21-12.23,19.8-22s7.56-23.3,5-34.14C600.42,928.4,587.51,915.07,576.51,911.11Z" />
    <path
        d="M957.21,1405.36c-20.31-1.14-40.66-3.55-58.72-10.58C916.41,1402.4,937.21,1405,957.21,1405.36Z" />
    <path
        d="M1261,1268.8c-30.89-7.88-56.75-4.91-83.51-4.08-47.41,1.76-95,4.19-143.27,2.06-23.87-.76-47.28-2.12-70-3.68-23-1.31-44-4.16-69.55-2.36,22-.15,51.77,0,68.09,6.06l-5.52,2.14c3.57,2.71,15.65,4.13,21.8,6-2.74,1-5.83.14-8.92-.75l6.18,1.77c-22.77-.71-70.12-2.74-64.19,5.9,1.08,1.14,3.26,2,6.24,2.69a115.49,115.49,0,0,0-15.25,3.42c-23.42,7.26-50.35,24.1-38.61,64.35,11.4,39,109.18,33.74,180.9,31-.76.08-1.52.14-2.28.23l2.57,0c1.9-.12,3.76-.26,5.61-.41l7.57-.27c-5.35,2.15-12,4-17.25,6.19,45.37-.31,90.18,2.53,136.33,1.75a355.5,355.5,0,0,1-50.07-5.47c29.8,1.64,59.66,4.59,90.56,2.66,16.21-2.4,33.12-5.72,47.62-15.79,15.2-10.09,20.82-30,18.36-46.57a29.68,29.68,0,0,1,2.65,9.93c.1-12.22-4-25.82-13.31-34.89a42.47,42.47,0,0,0-9.93-5.67,43.2,43.2,0,0,1,6.61,2.61c-15.48-12.39-34-15.56-51.25-18.16-17.46-2.25-34.66-2.79-51.43-3a9.58,9.58,0,0,0,5.24-1.64l-5.46.2c-4.89.39-9.78.76-14.5.93a122.17,122.17,0,0,1,14.5-.93l6-.48a6.27,6.27,0,0,1,5-.37c9.2-.66,17.86-.85,24.22.4,23.54,5,49.21,3.31,68,20.61,4.08,4,2.29,3.72-.34,2.43,1.18.89,2.2,2,3.32,3.06,7.36,5.33,12.73,14.31,14.33,23.68,1.24,10.33.49,20.58-3.77,30.58a44.87,44.87,0,0,1-2.73,5.63l1.36-2.85c-14.87,25.39-43,28.13-64.51,30.28a383.8,383.8,0,0,1-40.49,2.81c24.53.68,49.85.78,75.69-6.58-16.19,8.4-35,11.54-53.31,12.67a312.4,312.4,0,0,0,64.08-9.26c-13.15,6-23.56,7.85-33.15,10.66,10.68-1.56,21.81-3.59,33.5-9,11.46-5,24.13-15.09,30.56-29.32a64.77,64.77,0,0,0,3.07-8.21,57.64,57.64,0,0,1-3.07,8.21c-6.79,15.61-21.09,27.29-34.14,32.73a92.94,92.94,0,0,1-38.15,8c2.7-.81,5.42-1.54,8.23-2.35-38.45,4.55-72.9,1-107.29.39,18.14,6,46.41.82,68.39,4.61-39,2.55-78.31-1.34-116.23-.86-38.3.76-77.66,4.31-116.18,7.87,27.36,1.09,54.07.46,80.71,1.81-5-.25-10.79.46-16.49,1,18.35-.76,35.49-1.3,53.52-1.91l-.2.2c40.63-.59,82.53,6.67,127.79,7.43-17.86,6.91-28.68-1.7-40.6-1.62-30.54.9-60.17-.92-86-.27,9.09-.27,18.37-.31,27.83-.27-17.23-.1-30.38-.82-47.85-1.75,5.24-2.18,16.25-.87,18.85-3.52-23,.4-47,2.85-71.09,6.36-29.38,3.09-12.85,11.1-.83,10.58,29.84-1.32,57.81-2.2,82.66-1.45,25.85.72,52.57,2.42,81.2.84,27.14-3.6,54.86-3.88,88.91-15.71,9.76-2.87,23-8.25,34.55-18.43,11.77-10,18.95-24.48,20.66-32.28,4.11-21.69,1.91-37.76-7.68-57.91C1295.5,1283.56,1276,1272.8,1261,1268.8Z" />
    <path
        d="M986.29,1410c-2.64.32-5.22.71-7.8,1.21,22.22,3,45.66-.52,67.45-.66C1025.88,1410.42,1006,1410.43,986.29,1410Z" />
    <path d="M896.71,1282.25a61.91,61.91,0,0,0-14.29,5.62A129.46,129.46,0,0,1,896.71,1282.25Z" />
    <path d="M862.92,1574c-.17-1.72-.31-3.47-.39-5.25C862.6,1570.45,862.72,1572.2,862.92,1574Z" />
    <path d="M1551.27,570.55c.27,3.46.51,6.92.7,10.39C1551.78,577.48,1551.53,574,1551.27,570.55Z" />
    <path d="M1537.19,709.5q-3.5,14.36-7.81,28.48Q1533.83,723.93,1537.19,709.5Z" />
    <path
        d="M874.39,1597c-7.11-15.22-6.88-27-5.93-40.34-2.66-3.89,2.89-19,5.86-26.38a63.52,63.52,0,0,0-11.13,33.09,82.7,82.7,0,0,0,.63,15.2c.19,1.41.44,2.9.76,4.43a70.34,70.34,0,0,1-1.66-9.08c.17,1.63.36,3.24.6,4.81,1.39,10.55,6.48,23.15,14.6,32,16.68,18,35.94,22.76,51.89,25.75,11.59,2.13,21.08,11.81,37.31,6.69-19.65-2.82-40.17-5.77-62.59-16.9C893.87,1620.71,881.31,1611.36,874.39,1597Z" />
    <path
        d="M991.05,1626.08c-2.34.31-4.67.62-7,1.08,19.79,3.43,40.64.08,59.92.14C1026.23,1627,1008.58,1626.81,991.05,1626.08Z" />
    <path
        d="M965.26,1620.86c-18-1.66-36.35-4.95-51.33-14C928.68,1616.48,947.54,1620,965.26,1620.86Z" />
    <path
        d="M940.28,1615.12c27.16,11.76,49.23,9.25,71.53,9.53,39.69,0,78.77-3.07,118.34-1.26,19.64.56,38.85,1.74,57.58,3.22,19.16,1.13,35.88,4.24,58.49,2.59-19.66.14-43.7-.49-57.3-6l4.54-2c-3-2.48-12.9-3.85-18-5.53,2.26-1,4.8-.14,7.35.67l-5.1-1.62c18.64.47,57.89,3,52.83-5.08-.93-1.08-2.72-1.91-5.17-2.58a82.2,82.2,0,0,0,12.45-2.92c20.09-6.69,40.83-19.51,35.83-51.75-6.54-42.12-79.39-38.62-142.26-36.54l1.87-.19-2.11,0c-1.56.09-3.09.2-4.61.33l-6.22.19c4.4-2,9.83-3.62,14.18-5.61-37.28-.38-74.19-2.09-112.12-.74a260.44,260.44,0,0,1,41.22,4.36c-24.51-1.16-49.08-3.25-74.5-1.41-13.35,2.08-27.12,5.18-39.23,13.06-12.5,7.74-19.23,23.25-18.58,37.16a22.62,22.62,0,0,1-1.56-8.37c-.7,10.13.34,20.86,6,30.18a34.62,34.62,0,0,0,7.11,6.46,35.81,35.81,0,0,1-5-3.32c10.27,13.42,26,18.31,40,21.41,14.35,3,28.55,4.08,42.39,4.73a7.44,7.44,0,0,0-4.39,1.37l4.52,0c4.06-.23,8.1-.47,12-.52a87,87,0,0,1-12,.52l-4.95.28a4.66,4.66,0,0,1-4.14.2c-7.64.32-14.85.21-20.07-1.24-18.89-5.42-41.78-6-54.31-24.66-2.44-4.23-1-3.57,1-2.06a36.62,36.62,0,0,1-2.11-3.14,35.18,35.18,0,0,1-8-21.16c-.14-8.25,1.47-17.13,5.88-24.88a42.53,42.53,0,0,1,2.67-4.42L935,1536.6c13.91-19.34,36.12-22,54.11-23.82a306.86,306.86,0,0,1,33.28-3c-20.21-.39-41,0-62.36,5.88,13.26-7.08,28.72-10.12,43.82-11.31a185.56,185.56,0,0,0-30.23,3.36c-8,1-16.27,2.93-22.74,4.3,10.88-4.67,19.47-6.44,27.35-8.9-16.57,2.71-39.59,7-54.29,30a60.78,60.78,0,0,0-3.33,6.59,52.19,52.19,0,0,1,3.33-6.59c15.61-25.36,42.28-32,61.06-32.12-2.2.7-4.48,1.5-6.77,2.14,31.77-4,60.19-1.65,88.49-1.4-15-5.3-38.21-.06-56.41-3.37,32.13-2.73,64.54,0,95.82-.46,31.56-.48,63.7-3.5,96.26-6-23-1.61-45.15-1.24-67.07-2.73,4.12.29,8.88-.33,13.6-.8-15.18.54-29.16.86-44.1,1.39l.17-.19c-33.6.53-68-5.16-105.68-5.48,14.78-6.62,23.8,1.27,33.67,1,27-1.36,53.11.12,75.56-.82-9,.37-18.13.48-27.53.55,14.21-.07,25.14.54,39.52,1.57-4.29,2-13.38.71-15.54,3.17a440.73,440.73,0,0,0,58.67-5.34c24.49-2.52,10.83-10.14.75-9.81-24.92,1-47.62,1.41-68.33.79-21.47-.56-43.44-1.67-67.18.21-22.4,3.6-45.45,4.5-73.66,14.57a84.42,84.42,0,0,0-28.69,14.4c-9.87,7.64-17,18.75-19.11,25.32-5.72,18.77-4.1,32.43.52,48.2C912.72,1594.17,926.73,1609.28,940.28,1615.12Z" />
    <text class="name" transform="translate(-30 1928.98) scale(2 2)">MadhbhvikaR</text>
</svg>